<svg width="80" height="80" viewBox="0 0 80 80" fill="none" xmlns="http://www.w3.org/2000/svg">
<path d="M16.4659 18.3159C16.6652 18.0344 17.0829 18.0344 17.2821 18.3159L20.4162 22.7432C20.6065 23.0121 20.88 23.2108 21.1946 23.3087L26.3737 24.9213C26.7029 25.0238 26.832 25.421 26.6259 25.6975L23.3837 30.0463C23.1869 30.3104 23.0824 30.632 23.0864 30.9614L23.1532 36.3853C23.1575 36.7301 22.8196 36.9756 22.4929 36.865L17.3551 35.1254C17.0431 35.0198 16.705 35.0198 16.393 35.1254L11.2551 36.865C10.9285 36.9756 10.5906 36.7301 10.5948 36.3853L10.6616 30.9614C10.6657 30.632 10.5612 30.3104 10.3643 30.0463L7.12216 25.6975C6.91603 25.421 7.0451 25.0238 7.37438 24.9213L12.5535 23.3087C12.868 23.2108 13.1415 23.0121 13.3319 22.7432L16.4659 18.3159Z" stroke="white"/>
<path d="M39.5919 18.3159C39.7912 18.0344 40.2088 18.0344 40.4081 18.3159L43.5422 22.7432C43.7325 23.0121 44.006 23.2108 44.3205 23.3087L49.4996 24.9213C49.8289 25.0238 49.958 25.421 49.7519 25.6975L46.5097 30.0463C46.3128 30.3104 46.2084 30.632 46.2124 30.9614L46.2792 36.3853C46.2834 36.7301 45.9455 36.9756 45.6189 36.865L40.4811 35.1254C40.1691 35.0198 39.8309 35.0198 39.5189 35.1254L34.3811 36.865C34.0545 36.9756 33.7166 36.7301 33.7208 36.3853L33.7876 30.9614C33.7916 30.632 33.6872 30.3104 33.4903 30.0463L30.2481 25.6975C30.042 25.421 30.1711 25.0238 30.5004 24.9213L35.6795 23.3087C35.994 23.2108 36.2675 23.0121 36.4578 22.7432L39.5919 18.3159Z" stroke="white"/>
<path d="M62.7179 18.3159C62.9171 18.0344 63.3348 18.0344 63.5341 18.3159L66.6681 22.7432C66.8585 23.0121 67.132 23.2108 67.4465 23.3087L72.6256 24.9213C72.9549 25.0238 73.084 25.421 72.8778 25.6975L69.6357 30.0463C69.4388 30.3104 69.3343 30.632 69.3384 30.9614L69.4052 36.3853C69.4094 36.7301 69.0715 36.9756 68.7449 36.865L63.607 35.1254C63.295 35.0198 62.9569 35.0198 62.6449 35.1254L57.5071 36.865C57.1804 36.9756 56.8425 36.7301 56.8468 36.3853L56.9136 30.9614C56.9176 30.632 56.8131 30.3104 56.6163 30.0463L53.3741 25.6975C53.168 25.421 53.2971 25.0238 53.6263 24.9213L58.8054 23.3087C59.12 23.2108 59.3935 23.0121 59.5838 22.7432L62.7179 18.3159Z" stroke="white"/>
<path d="M28.6373 41.4419C28.8366 41.1604 29.2542 41.1604 29.4535 41.4419L32.5876 45.8692C32.7779 46.138 33.0514 46.3368 33.3659 46.4347L38.5451 48.0473C38.8743 48.1498 39.0034 48.547 38.7973 48.8235L35.5551 53.1723C35.3582 53.4364 35.2538 53.758 35.2578 54.0873L35.3246 59.5113C35.3289 59.8561 34.9909 60.1016 34.6643 59.991L29.5265 58.2514C29.2145 58.1458 28.8764 58.1458 28.5644 58.2514L23.4265 59.991C23.0999 60.1016 22.762 59.8561 22.7662 59.5113L22.833 54.0873C22.8371 53.758 22.7326 53.4364 22.5357 53.1723L19.2936 48.8235C19.0874 48.547 19.2165 48.1498 19.5458 48.0473L24.7249 46.4347C25.0394 46.3368 25.3129 46.138 25.5032 45.8692L28.6373 41.4419Z" stroke="white"/>
<path d="M51.7633 41.4419C51.9625 41.1604 52.3802 41.1604 52.5795 41.4419L55.7136 45.8692C55.9039 46.138 56.1774 46.3368 56.4919 46.4347L61.671 48.0473C62.0003 48.1498 62.1294 48.547 61.9232 48.8235L58.6811 53.1723C58.4842 53.4364 58.3797 53.758 58.3838 54.0873L58.4506 59.5113C58.4548 59.8561 58.1169 60.1016 57.7903 59.991L52.6524 58.2514C52.3404 58.1458 52.0023 58.1458 51.6903 58.2514L46.5525 59.991C46.2258 60.1016 45.8879 59.8561 45.8922 59.5113L45.959 54.0873C45.963 53.758 45.8586 53.4364 45.6617 53.1723L42.4195 48.8235C42.2134 48.547 42.3425 48.1498 42.6717 48.0473L47.8509 46.4347C48.1654 46.3368 48.4389 46.138 48.6292 45.8692L51.7633 41.4419Z" stroke="white"/>
</svg>
