<svg width="80" height="80" viewBox="0 0 80 80" fill="none" xmlns="http://www.w3.org/2000/svg">
<path d="M50.2982 57.8641C42.8004 58.2233 37.0482 60.3494 33.2341 62.5201C30.5728 64.0347 26.8658 63.851 24.9451 61.4661L9.20037 41.9152C7.87977 40.2754 7.73788 37.9582 9.32835 36.5786C11.7037 34.5182 15.691 32.1927 21.4327 31.3209C25.0238 31.0563 33.0853 30.3626 36.6029 29.7054C38.6336 29.394 40.4196 29.0347 41.9757 28.6561M50.2982 57.8641C51.2201 57.8199 54.5257 57.8516 55.5 57.8641C64.7794 57.9827 68.7852 56.0787 70.5986 54.2129C71.7868 52.9903 71.3464 51.0935 70.2661 49.7746L53.5284 29.3409C51.7546 27.1754 48.3653 26.6748 45.7159 27.5783C44.6581 27.939 43.4153 28.3058 41.9757 28.6561M50.2982 57.8641C49.5959 54.4731 52.3284 50.2798 44 42C38.6548 36.686 39.342 29.3761 41.9757 28.6561" stroke="white"/>
<path d="M25.1032 18.6299C24.2225 19.5827 23.6342 24.1455 24.3779 26.6084C27.4014 32.4181 29.3189 36.0395 33.0818 40.3895C35.5562 37.9773 37.0048 35.3558 39.6097 31.6857C41.857 27.3694 42.6535 23.3205 42.0733 22.16C41.348 20.7094 41.4422 19.2093 40.7169 18.4839C39.9915 17.7586 36.7442 14.5718 36.0189 14.5718C35.2936 14.5718 30.8664 14.6899 30.1411 14.6899C29.4158 14.6899 26.5828 17.0292 25.1032 18.6299Z" fill="#739276"/>
<path d="M33.55 41.2588L33.55 41.2588L33.5485 41.2606C33.3071 41.554 32.8582 41.5545 32.6162 41.262C32.5877 41.2245 32.5134 41.134 32.4 40.9959C31.7291 40.1786 29.6898 37.6945 27.6798 34.6641C26.5028 32.8896 25.3386 30.9314 24.4689 29.0173C23.5984 27.1013 23.0272 25.2382 23.0272 23.6514C23.0272 18.1172 27.5753 13.6527 33.0818 13.6527C38.5878 13.6527 43.1363 18.1769 43.1363 23.6514C43.1363 25.2383 42.565 27.1051 41.6945 29.0258C40.8249 30.9447 39.6606 32.9084 38.4836 34.6868C36.1297 38.2433 33.7301 41.0499 33.55 41.2588ZM33.004 39.764L33.0818 39.8601L33.1595 39.764C34.1576 38.5308 36.3366 35.777 38.2665 32.6911C39.2314 31.1482 40.1353 29.5203 40.7982 27.9565C41.4605 26.3942 41.8856 24.8882 41.8856 23.5913C41.8856 18.7872 37.9724 14.8353 33.0818 14.8353C28.1911 14.8353 24.2779 18.7872 24.2779 23.5913C24.2779 24.8733 24.7031 26.3718 25.3653 27.9312C26.0282 29.4921 26.9321 31.1218 27.897 32.6684C29.8268 35.7618 32.0058 38.5306 33.004 39.764Z" fill="white" stroke="#739276" stroke-width="0.2"/>
<path d="M33.0818 27.6691C30.9158 27.6691 29.12 25.8734 29.12 23.7073C29.12 21.5412 30.9158 19.7455 33.0818 19.7455C35.2479 19.7455 37.0436 21.5412 37.0436 23.7073C37.0436 25.8734 35.2479 27.6691 33.0818 27.6691ZM33.0818 21.0687C31.6303 21.0687 30.4432 22.2558 30.4432 23.7073C30.4432 25.1588 31.6303 26.3459 33.0818 26.3459C34.5333 26.3459 35.7204 25.1588 35.7204 23.7073C35.7204 22.2558 34.5333 21.0687 33.0818 21.0687Z" fill="white" stroke="#739276" stroke-width="0.2"/>
</svg>
