<svg width="80" height="80" viewBox="0 0 80 80" fill="none" xmlns="http://www.w3.org/2000/svg">
<g clip-path="url(#clip0_396_506)">
<path d="M-1 74.5C-1.27614 74.5 -1.5 74.7239 -1.5 75C-1.5 75.2761 -1.27614 75.5 -1 75.5V74.5ZM80 75.5C80.2761 75.5 80.5 75.2761 80.5 75C80.5 74.7239 80.2761 74.5 80 74.5V75.5ZM12.641 17.1147V75H13.641V17.1147H12.641ZM66.6776 75V17.1147H65.6776V75H66.6776ZM24.6084 14.6147H15.141V15.6147H24.6084V14.6147ZM34.723 5.5H44.277V4.5H34.723V5.5ZM64.1776 14.6147H54.3916V15.6147H64.1776V14.6147ZM54.3916 14.6147H24.6084V15.6147H54.3916V14.6147ZM46.2689 75.5H66.1776V74.5H46.2689V75.5ZM46.7689 75V67.5609H45.7689V75H46.7689ZM13.141 75.5H32.8903V74.5H13.141V75.5ZM32.8903 75.5H46.2689V74.5H32.8903V75.5ZM32.3903 67.5609V75H33.3903V67.5609H32.3903ZM17.5783 21.2523V25.9954H18.5783V21.2523H17.5783ZM19.0783 27.4954H23.6084V26.4954H19.0783V27.4954ZM25.1084 25.9954V21.2523H24.1084V25.9954H25.1084ZM23.6084 19.7523H19.0783V20.7523H23.6084V19.7523ZM29.6828 21.2523V25.9954H30.6828V21.2523H29.6828ZM31.1828 27.4954H35.7128V26.4954H31.1828V27.4954ZM37.2128 25.9954V21.2523H36.2128V25.9954H37.2128ZM35.7128 19.7523H31.1828V20.7523H35.7128V19.7523ZM41.7872 21.2523V25.9954H42.7872V21.2523H41.7872ZM43.2872 27.4954H47.8172V26.4954H43.2872V27.4954ZM49.3172 25.9954V21.2523H48.3172V25.9954H49.3172ZM47.8172 19.7523H43.2872V20.7523H47.8172V19.7523ZM53.8916 21.2523V25.9954H54.8916V21.2523H53.8916ZM55.3916 27.4954H59.9217V26.4954H55.3916V27.4954ZM61.4217 25.9954V21.2523H60.4217V25.9954H61.4217ZM59.9217 19.7523H55.3916V20.7523H59.9217V19.7523ZM17.5783 34.4174V39.1605H18.5783V34.4174H17.5783ZM19.0783 40.6605H23.6084V39.6605H19.0783V40.6605ZM25.1084 39.1605V34.4174H24.1084V39.1605H25.1084ZM23.6084 32.9174H19.0783V33.9174H23.6084V32.9174ZM29.6828 34.4174V39.1605H30.6828V34.4174H29.6828ZM31.1828 40.6605H35.7128V39.6605H31.1828V40.6605ZM37.2128 39.1605V34.4174H36.2128V39.1605H37.2128ZM35.7128 32.9174H31.1828V33.9174H35.7128V32.9174ZM41.7872 34.4174V39.1605H42.7872V34.4174H41.7872ZM43.2872 40.6605H47.8172V39.6605H43.2872V40.6605ZM49.3172 39.1605V34.4174H48.3172V39.1605H49.3172ZM47.8172 32.9174H43.2872V33.9174H47.8172V32.9174ZM53.8916 34.4174V39.1605H54.8916V34.4174H53.8916ZM55.3916 40.6605H59.9217V39.6605H55.3916V40.6605ZM61.4217 39.1605V34.4174H60.4217V39.1605H61.4217ZM59.9217 32.9174H55.3916V33.9174H59.9217V32.9174ZM17.5783 47.5826V52.3257H18.5783V47.5826H17.5783ZM19.0783 53.8257H23.6084V52.8257H19.0783V53.8257ZM25.1084 52.3257V47.5826H24.1084V52.3257H25.1084ZM23.6084 46.0826H19.0783V47.0826H23.6084V46.0826ZM29.6828 47.5826V52.3257H30.6828V47.5826H29.6828ZM31.1828 53.8257H35.7128V52.8257H31.1828V53.8257ZM37.2128 52.3257V47.5826H36.2128V52.3257H37.2128ZM35.7128 46.0826H31.1828V47.0826H35.7128V46.0826ZM41.7872 47.5826V52.3257H42.7872V47.5826H41.7872ZM43.2872 53.8257H47.8172V52.8257H43.2872V53.8257ZM49.3172 52.3257V47.5826H48.3172V52.3257H49.3172ZM47.8172 46.0826H43.2872V47.0826H47.8172V46.0826ZM53.8916 47.5826V52.3257H54.8916V47.5826H53.8916ZM55.3916 53.8257H59.9217V52.8257H55.3916V53.8257ZM61.4217 52.3257V47.5826H60.4217V52.3257H61.4217ZM59.9217 46.0826H55.3916V47.0826H59.9217V46.0826ZM17.5783 61.0688V65.8119H18.5783V61.0688H17.5783ZM19.0783 67.3119H23.6084V66.3119H19.0783V67.3119ZM25.1084 65.8119V61.0688H24.1084V65.8119H25.1084ZM23.6084 59.5688H19.0783V60.5688H23.6084V59.5688ZM53.8916 61.0688V65.8119H54.8916V61.0688H53.8916ZM55.3916 67.3119H59.9217V66.3119H55.3916V67.3119ZM61.4217 65.8119V61.0688H60.4217V65.8119H61.4217ZM59.9217 59.5688H55.3916V60.5688H59.9217V59.5688ZM13.141 74.5H6.0705V75.5H13.141V74.5ZM6.0705 74.5H-1V75.5H6.0705V74.5ZM6.5705 75V57H5.5705V75H6.5705ZM66.1776 75.5H73.0888V74.5H66.1776V75.5ZM73.0888 75.5H80V74.5H73.0888V75.5ZM73.5888 75V57H72.5888V75H73.5888ZM61.4217 61.0688C61.4217 60.2404 60.7501 59.5688 59.9217 59.5688V60.5688C60.1978 60.5688 60.4217 60.7927 60.4217 61.0688H61.4217ZM59.9217 67.3119C60.7501 67.3119 61.4217 66.6404 61.4217 65.8119H60.4217C60.4217 66.0881 60.1978 66.3119 59.9217 66.3119V67.3119ZM53.8916 65.8119C53.8916 66.6404 54.5632 67.3119 55.3916 67.3119V66.3119C55.1155 66.3119 54.8916 66.0881 54.8916 65.8119H53.8916ZM54.8916 61.0688C54.8916 60.7927 55.1155 60.5688 55.3916 60.5688V59.5688C54.5632 59.5688 53.8916 60.2404 53.8916 61.0688H54.8916ZM25.1084 61.0688C25.1084 60.2404 24.4368 59.5688 23.6084 59.5688V60.5688C23.8845 60.5688 24.1084 60.7927 24.1084 61.0688H25.1084ZM23.6084 67.3119C24.4368 67.3119 25.1084 66.6404 25.1084 65.8119H24.1084C24.1084 66.0881 23.8845 66.3119 23.6084 66.3119V67.3119ZM17.5783 65.8119C17.5783 66.6404 18.2499 67.3119 19.0783 67.3119V66.3119C18.8022 66.3119 18.5783 66.0881 18.5783 65.8119H17.5783ZM18.5783 61.0688C18.5783 60.7927 18.8022 60.5688 19.0783 60.5688V59.5688C18.2499 59.5688 17.5783 60.2404 17.5783 61.0688H18.5783ZM61.4217 47.5826C61.4217 46.7541 60.7501 46.0826 59.9217 46.0826V47.0826C60.1978 47.0826 60.4217 47.3064 60.4217 47.5826H61.4217ZM59.9217 53.8257C60.7501 53.8257 61.4217 53.1541 61.4217 52.3257H60.4217C60.4217 52.6018 60.1978 52.8257 59.9217 52.8257V53.8257ZM53.8916 52.3257C53.8916 53.1541 54.5632 53.8257 55.3916 53.8257V52.8257C55.1155 52.8257 54.8916 52.6018 54.8916 52.3257H53.8916ZM54.8916 47.5826C54.8916 47.3064 55.1155 47.0826 55.3916 47.0826V46.0826C54.5632 46.0826 53.8916 46.7541 53.8916 47.5826H54.8916ZM49.3172 47.5826C49.3172 46.7541 48.6457 46.0826 47.8172 46.0826V47.0826C48.0934 47.0826 48.3172 47.3064 48.3172 47.5826H49.3172ZM47.8172 53.8257C48.6457 53.8257 49.3172 53.1541 49.3172 52.3257H48.3172C48.3172 52.6018 48.0934 52.8257 47.8172 52.8257V53.8257ZM41.7872 52.3257C41.7872 53.1541 42.4588 53.8257 43.2872 53.8257V52.8257C43.0111 52.8257 42.7872 52.6018 42.7872 52.3257H41.7872ZM42.7872 47.5826C42.7872 47.3064 43.0111 47.0826 43.2872 47.0826V46.0826C42.4588 46.0826 41.7872 46.7541 41.7872 47.5826H42.7872ZM29.6828 52.3257C29.6828 53.1541 30.3543 53.8257 31.1828 53.8257V52.8257C30.9066 52.8257 30.6828 52.6018 30.6828 52.3257H29.6828ZM25.1084 47.5826C25.1084 46.7541 24.4368 46.0826 23.6084 46.0826V47.0826C23.8845 47.0826 24.1084 47.3064 24.1084 47.5826H25.1084ZM23.6084 53.8257C24.4368 53.8257 25.1084 53.1541 25.1084 52.3257H24.1084C24.1084 52.6018 23.8845 52.8257 23.6084 52.8257V53.8257ZM18.5783 47.5826C18.5783 47.3064 18.8022 47.0826 19.0783 47.0826V46.0826C18.2499 46.0826 17.5783 46.7541 17.5783 47.5826H18.5783ZM61.4217 34.4174C61.4217 33.589 60.7501 32.9174 59.9217 32.9174V33.9174C60.1978 33.9174 60.4217 34.1413 60.4217 34.4174H61.4217ZM59.9217 40.6605C60.7501 40.6605 61.4217 39.989 61.4217 39.1605H60.4217C60.4217 39.4367 60.1978 39.6605 59.9217 39.6605V40.6605ZM53.8916 39.1605C53.8916 39.989 54.5632 40.6605 55.3916 40.6605V39.6605C55.1155 39.6605 54.8916 39.4367 54.8916 39.1605H53.8916ZM54.8916 34.4174C54.8916 34.1413 55.1155 33.9174 55.3916 33.9174V32.9174C54.5632 32.9174 53.8916 33.589 53.8916 34.4174H54.8916ZM49.3172 34.4174C49.3172 33.589 48.6457 32.9174 47.8172 32.9174V33.9174C48.0934 33.9174 48.3172 34.1413 48.3172 34.4174H49.3172ZM47.8172 40.6605C48.6457 40.6605 49.3172 39.989 49.3172 39.1605H48.3172C48.3172 39.4367 48.0934 39.6605 47.8172 39.6605V40.6605ZM41.7872 39.1605C41.7872 39.989 42.4588 40.6605 43.2872 40.6605V39.6605C43.0111 39.6605 42.7872 39.4367 42.7872 39.1605H41.7872ZM42.7872 34.4174C42.7872 34.1413 43.0111 33.9174 43.2872 33.9174V32.9174C42.4588 32.9174 41.7872 33.589 41.7872 34.4174H42.7872ZM37.2128 34.4174C37.2128 33.589 36.5412 32.9174 35.7128 32.9174V33.9174C35.9889 33.9174 36.2128 34.1413 36.2128 34.4174H37.2128ZM35.7128 40.6605C36.5412 40.6605 37.2128 39.989 37.2128 39.1605H36.2128C36.2128 39.4367 35.9889 39.6605 35.7128 39.6605V40.6605ZM29.6828 39.1605C29.6828 39.989 30.3543 40.6605 31.1828 40.6605V39.6605C30.9066 39.6605 30.6828 39.4367 30.6828 39.1605H29.6828ZM30.6828 34.4174C30.6828 34.1413 30.9066 33.9174 31.1828 33.9174V32.9174C30.3543 32.9174 29.6828 33.589 29.6828 34.4174H30.6828ZM25.1084 34.4174C25.1084 33.589 24.4368 32.9174 23.6084 32.9174V33.9174C23.8845 33.9174 24.1084 34.1413 24.1084 34.4174H25.1084ZM23.6084 40.6605C24.4368 40.6605 25.1084 39.989 25.1084 39.1605H24.1084C24.1084 39.4367 23.8845 39.6605 23.6084 39.6605V40.6605ZM17.5783 39.1605C17.5783 39.989 18.2499 40.6605 19.0783 40.6605V39.6605C18.8022 39.6605 18.5783 39.4367 18.5783 39.1605H17.5783ZM18.5783 34.4174C18.5783 34.1413 18.8022 33.9174 19.0783 33.9174V32.9174C18.2499 32.9174 17.5783 33.589 17.5783 34.4174H18.5783ZM53.8916 25.9954C53.8916 26.8238 54.5632 27.4954 55.3916 27.4954V26.4954C55.1155 26.4954 54.8916 26.2716 54.8916 25.9954H53.8916ZM49.3172 21.2523C49.3172 20.4239 48.6457 19.7523 47.8172 19.7523V20.7523C48.0934 20.7523 48.3172 20.9762 48.3172 21.2523H49.3172ZM47.8172 27.4954C48.6457 27.4954 49.3172 26.8238 49.3172 25.9954H48.3172C48.3172 26.2716 48.0934 26.4954 47.8172 26.4954V27.4954ZM42.7872 21.2523C42.7872 20.9762 43.0111 20.7523 43.2872 20.7523V19.7523C42.4588 19.7523 41.7872 20.4239 41.7872 21.2523H42.7872ZM37.2128 21.2523C37.2128 20.4239 36.5412 19.7523 35.7128 19.7523V20.7523C35.9889 20.7523 36.2128 20.9762 36.2128 21.2523H37.2128ZM35.7128 27.4954C36.5412 27.4954 37.2128 26.8238 37.2128 25.9954H36.2128C36.2128 26.2716 35.9889 26.4954 35.7128 26.4954V27.4954ZM29.6828 25.9954C29.6828 26.8238 30.3543 27.4954 31.1828 27.4954V26.4954C30.9066 26.4954 30.6828 26.2716 30.6828 25.9954H29.6828ZM30.6828 21.2523C30.6828 20.9762 30.9066 20.7523 31.1828 20.7523V19.7523C30.3543 19.7523 29.6828 20.4239 29.6828 21.2523H30.6828ZM17.5783 25.9954C17.5783 26.8238 18.2499 27.4954 19.0783 27.4954V26.4954C18.8022 26.4954 18.5783 26.2716 18.5783 25.9954H17.5783ZM39.5796 60.3716C35.6091 60.3716 32.3903 63.5903 32.3903 67.5609H33.3903C33.3903 64.1426 36.1614 61.3716 39.5796 61.3716V60.3716ZM41.7872 25.9954C41.7872 26.8238 42.4588 27.4954 43.2872 27.4954V26.4954C43.0111 26.4954 42.7872 26.2716 42.7872 25.9954H41.7872ZM17.5783 52.3257C17.5783 53.1541 18.2499 53.8257 19.0783 53.8257V52.8257C18.8022 52.8257 18.5783 52.6018 18.5783 52.3257H17.5783ZM13.641 17.1147C13.641 16.2863 14.3126 15.6147 15.141 15.6147V14.6147C13.7603 14.6147 12.641 15.734 12.641 17.1147H13.641ZM46.7689 67.5609C46.7689 63.5903 43.5502 60.3716 39.5796 60.3716V61.3716C42.9979 61.3716 45.7689 64.1426 45.7689 67.5609H46.7689ZM25.1084 21.2523C25.1084 20.4239 24.4368 19.7523 23.6084 19.7523V20.7523C23.8845 20.7523 24.1084 20.9762 24.1084 21.2523H25.1084ZM61.4217 21.2523C61.4217 20.4239 60.7501 19.7523 59.9217 19.7523V20.7523C60.1978 20.7523 60.4217 20.9762 60.4217 21.2523H61.4217ZM37.2128 47.5826C37.2128 46.7541 36.5412 46.0826 35.7128 46.0826V47.0826C35.9889 47.0826 36.2128 47.3064 36.2128 47.5826H37.2128ZM44.277 5.5C49.587 5.5 53.8916 9.80464 53.8916 15.1147H54.8916C54.8916 9.25235 50.1393 4.5 44.277 4.5V5.5ZM18.5783 21.2523C18.5783 20.9762 18.8022 20.7523 19.0783 20.7523V19.7523C18.2499 19.7523 17.5783 20.4239 17.5783 21.2523H18.5783ZM54.8916 21.2523C54.8916 20.9762 55.1155 20.7523 55.3916 20.7523V19.7523C54.5632 19.7523 53.8916 20.4239 53.8916 21.2523H54.8916ZM30.6828 47.5826C30.6828 47.3064 30.9066 47.0826 31.1828 47.0826V46.0826C30.3543 46.0826 29.6828 46.7541 29.6828 47.5826H30.6828ZM66.6776 17.1147C66.6776 15.734 65.5583 14.6147 64.1776 14.6147V15.6147C65.006 15.6147 65.6776 16.2863 65.6776 17.1147H66.6776ZM23.6084 27.4954C24.4368 27.4954 25.1084 26.8238 25.1084 25.9954H24.1084C24.1084 26.2716 23.8845 26.4954 23.6084 26.4954V27.4954ZM59.9217 27.4954C60.7501 27.4954 61.4217 26.8238 61.4217 25.9954H60.4217C60.4217 26.2716 60.1978 26.4954 59.9217 26.4954V27.4954ZM35.7128 53.8257C36.5412 53.8257 37.2128 53.1541 37.2128 52.3257H36.2128C36.2128 52.6018 35.9889 52.8257 35.7128 52.8257V53.8257ZM25.1084 15.1147C25.1084 9.80464 29.413 5.5 34.723 5.5V4.5C28.8607 4.5 24.1084 9.25235 24.1084 15.1147H25.1084Z" fill="white"/>
<circle cx="6" cy="57" r="2.5" fill="#F2F2F2" stroke="white"/>
<circle cx="73" cy="57" r="2.5" fill="#F2F2F2" stroke="white"/>
<path d="M6 54.5V52.5M8.5 57H10M3.5 57H1.5M8 55.5L9.5 54M4 55.5L2.5 54" stroke="white"/>
<path d="M73.25 54.5V52.5M75.75 57H77.25M70.75 57H68.75M75.25 55.5L76.75 54M71.25 55.5L69.75 54" stroke="white"/>
</g>
<defs>
<clipPath id="clip0_396_506">
<rect width="80" height="80" fill="white"/>
</clipPath>
</defs>
</svg>
