<svg width="80" height="80" viewBox="0 0 80 80" fill="none" xmlns="http://www.w3.org/2000/svg">
<path d="M10.6763 32.9356C10.9423 32.8615 11.0979 32.5858 11.0237 32.3198C10.9496 32.0538 10.6739 31.8982 10.4079 31.9723L10.6763 32.9356ZM6 33.7197L5.86578 33.238C5.64957 33.2983 5.5 33.4952 5.5 33.7197H6ZM6 58.6717H5.5C5.5 58.8862 5.63682 59.0768 5.84005 59.1454L6 58.6717ZM70.6792 58.6717L70.7991 59.1571C71.0223 59.102 71.1792 58.9017 71.1792 58.6717H70.6792ZM72.1327 25.583L72.4745 25.2181L72.1327 25.583ZM66.5005 25.764L66.2955 26.22L66.5296 26.3252L66.7515 26.1964L66.5005 25.764ZM60.3233 35.8894L60.7315 35.6007L60.3233 35.8894ZM59.0515 26.8488L59.4944 27.081L59.4983 27.0732L59.0515 26.8488ZM65.9554 23.4133L65.4659 23.5151L65.5594 23.9647L66.0153 23.9097L65.9554 23.4133ZM69.7708 17.8081L70.2273 17.6042L70.0842 17.2837L69.734 17.3095L69.7708 17.8081ZM51.2391 19.0738V18.5738C50.963 18.5738 50.7391 18.7977 50.7391 19.0738H51.2391ZM51.2391 40.5904H50.7391C50.7391 40.8665 50.963 41.0904 51.2391 41.0904V40.5904ZM63.0485 40.5904V41.0904C63.3247 41.0904 63.5485 40.8665 63.5485 40.5904H63.0485ZM63.0485 38.0579L63.2352 37.5941L63.0485 38.0579ZM63.0485 19.0738H63.5485C63.5485 18.7977 63.3247 18.5738 63.0485 18.5738V19.0738ZM63.0485 24.8783L63.0333 25.378L63.0485 24.8783ZM51.9658 15.5C51.6897 15.5 51.4658 15.7239 51.4658 16C51.4658 16.2761 51.6897 16.5 51.9658 16.5V15.5ZM56.3262 16.5C56.6024 16.5 56.8262 16.2761 56.8262 16C56.8262 15.7239 56.6024 15.5 56.3262 15.5V16.5ZM45.6069 30.8266L45.116 30.7317L45.1145 30.7394L45.1133 30.7472L45.6069 30.8266ZM46.5153 26.1255L47.0063 26.2203C47.0346 26.0738 46.996 25.9223 46.901 25.8072C46.806 25.6921 46.6646 25.6255 46.5153 25.6255V26.1255ZM44.8802 35.3469V35.8469C45.1257 35.8469 45.3349 35.6686 45.3739 35.4262L44.8802 35.3469ZM40.7015 35.3469L40.2076 35.4247C40.2459 35.6678 40.4554 35.8469 40.7015 35.8469V35.3469ZM39.248 26.1255V25.6255C39.1018 25.6255 38.9629 25.6895 38.8679 25.8006C38.7729 25.9117 38.7313 26.0589 38.7541 26.2033L39.248 26.1255ZM39.248 19.797V19.297C39.1006 19.297 38.9606 19.3621 38.8656 19.4749C38.7706 19.5877 38.7302 19.7366 38.7553 19.8819L39.248 19.797ZM46.5153 19.797L47.0055 19.8956C47.0351 19.7486 46.9971 19.5962 46.9022 19.4802C46.8072 19.3643 46.6652 19.297 46.5153 19.297V19.797ZM28.3431 30.3266C28.067 30.3287 27.8449 30.5543 27.847 30.8305C27.8492 31.1066 28.0748 31.3287 28.3509 31.3266L28.3431 30.3266ZM30.7089 33.9428C30.4328 33.9428 30.2089 34.1667 30.2089 34.4428C30.2089 34.7189 30.4328 34.9428 30.7089 34.9428V33.9428ZM36.5228 34.9428C36.7989 34.9428 37.0228 34.7189 37.0228 34.4428C37.0228 34.1667 36.7989 33.9428 36.5228 33.9428V34.9428ZM14.8996 19.4506C14.7082 19.2515 14.3917 19.2452 14.1926 19.4366C13.9935 19.6279 13.9873 19.9444 14.1786 20.1435L14.8996 19.4506ZM14.5391 27.9336L14.1864 27.5792L14.1766 27.589L14.1673 27.5993L14.5391 27.9336ZM14.1864 34.7972C14.3821 34.992 14.6987 34.9912 14.8935 34.7955C15.0883 34.5998 15.0875 34.2832 14.8918 34.0884L14.1864 34.7972ZM21.0769 19.4506C20.8856 19.2515 20.569 19.2452 20.3699 19.4366C20.1708 19.6279 20.1646 19.9444 20.3559 20.1435L21.0769 19.4506ZM20.7164 27.9336L20.3637 27.5792L20.3539 27.589L20.3446 27.5993L20.7164 27.9336ZM20.3637 34.7972C20.5594 34.992 20.876 34.9912 21.0708 34.7955C21.2656 34.5998 21.2649 34.2832 21.0691 34.0884L20.3637 34.7972ZM26.8908 19.4506C26.6994 19.2515 26.3829 19.2452 26.1838 19.4366C25.9847 19.6279 25.9784 19.9444 26.1698 20.1435L26.8908 19.4506ZM26.5303 27.9336L26.1776 27.5792L26.1677 27.589L26.1585 27.5993L26.5303 27.9336ZM26.1776 34.7972C26.3733 34.992 26.6899 34.9912 26.8847 34.7955C27.0795 34.5998 27.0787 34.2832 26.883 34.0884L26.1776 34.7972ZM11.4505 38.7823V38.2823C11.2614 38.2823 11.0885 38.3889 11.0037 38.5579C10.9188 38.7268 10.9365 38.9292 11.0494 39.0808L11.4505 38.7823ZM29.9822 38.7823L30.3904 39.071C30.4983 38.9184 30.5121 38.7184 30.4262 38.5524C30.3403 38.3865 30.169 38.2823 29.9822 38.2823V38.7823ZM11.4505 43.6642V43.1642C11.2685 43.1642 11.1009 43.2631 11.0129 43.4223C10.9249 43.5815 10.9303 43.776 11.0271 43.9301L11.4505 43.6642ZM29.9822 43.6642L30.4116 43.9204C30.5037 43.7659 30.5058 43.5738 30.417 43.4173C30.3281 43.2609 30.1621 43.1642 29.9822 43.1642V43.6642ZM26.5303 49.4502V49.9502C26.7064 49.9502 26.8695 49.8576 26.9597 49.7064L26.5303 49.4502ZM15.0842 49.4502L14.6607 49.7161C14.7522 49.8618 14.9121 49.9502 15.0842 49.9502V49.4502ZM36.5228 40.8137C36.2466 40.8137 36.0228 41.0375 36.0228 41.3137C36.0228 41.5898 36.2466 41.8137 36.5228 41.8137V40.8137ZM47.6054 41.8137C47.8816 41.8137 48.1054 41.5898 48.1054 41.3137C48.1054 41.0375 47.8816 40.8137 47.6054 40.8137V41.8137ZM36.5228 43.1642C36.2466 43.1642 36.0228 43.3881 36.0228 43.6642C36.0228 43.9403 36.2466 44.1642 36.5228 44.1642V43.1642ZM47.6054 44.1642C47.8816 44.1642 48.1054 43.9403 48.1054 43.6642C48.1054 43.3881 47.8816 43.1642 47.6054 43.1642V44.1642ZM36.5228 45.8764C36.2466 45.8764 36.0228 46.1002 36.0228 46.3764C36.0228 46.6525 36.2466 46.8764 36.5228 46.8764V45.8764ZM47.6054 46.8764C47.8816 46.8764 48.1054 46.6525 48.1054 46.3764C48.1054 46.1002 47.8816 45.8764 47.6054 45.8764V46.8764ZM9.75493 64.7347C9.60838 64.9687 9.67932 65.2772 9.91337 65.4238C10.1474 65.5703 10.456 65.4994 10.6025 65.2653L9.75493 64.7347ZM13.0856 60.3572L13.172 59.8647L13.0856 60.3572ZM66.9806 65.0772C67.1232 65.3138 67.4304 65.39 67.667 65.2474C67.9035 65.1049 67.9797 64.7977 67.8372 64.5611L66.9806 65.0772ZM10.4079 31.9723L5.86578 33.238L6.13422 34.2013L10.6763 32.9356L10.4079 31.9723ZM71.0175 37.8849C72.2733 36.7312 73.6517 34.564 74.2251 32.2107C74.8014 29.8456 74.582 27.1922 72.4745 25.2181L71.7909 25.9479C73.544 27.5901 73.7787 29.8186 73.2536 31.9739C72.7256 34.1409 71.447 36.1325 70.3409 37.1485L71.0175 37.8849ZM72.4745 25.2181C72.2384 24.997 71.8527 24.8354 71.4493 24.7228C71.0243 24.6043 70.5045 24.5199 69.9382 24.4959C68.8107 24.448 67.4452 24.6373 66.2494 25.3315L66.7515 26.1964C67.7359 25.6249 68.897 25.4525 69.8958 25.495C70.3926 25.5161 70.8359 25.5899 71.1806 25.6861C71.5469 25.7883 71.7374 25.8978 71.7909 25.9479L72.4745 25.2181ZM60.7315 35.6007C58.0901 31.8651 58.8449 28.3196 59.4943 27.0809L58.6086 26.6166C57.8046 28.1504 57.0333 32.1026 59.915 36.178L60.7315 35.6007ZM66.445 23.3115C66.2772 22.5046 66.2586 21.2891 66.7123 20.2665C67.1466 19.2875 68.0304 18.4378 69.8075 18.3068L69.734 17.3095C67.5868 17.4678 66.3812 18.5467 65.7982 19.861C65.2344 21.1317 65.2703 22.5742 65.4659 23.5151L66.445 23.3115ZM69.3142 18.012C69.645 18.7527 69.848 19.8627 69.4693 20.8201C69.1104 21.7276 68.1686 22.6427 65.8956 22.9169L66.0153 23.9097C68.5387 23.6053 69.8679 22.5314 70.3993 21.1878C70.9109 19.8941 70.6233 18.4908 70.2273 17.6042L69.3142 18.012ZM51.2391 41.0904H63.0485V40.0904H51.2391V41.0904ZM70.466 37.0645C68.8494 37.8265 65.7589 38.61 63.2352 37.5941L62.8618 38.5217C65.7607 39.6887 69.167 38.7824 70.8924 37.969L70.466 37.0645ZM63.2352 37.5941C62.2965 37.2162 61.4292 36.5874 60.7315 35.6007L59.915 36.178C60.73 37.3306 61.7552 38.0762 62.8618 38.5217L63.2352 37.5941ZM63.5485 40.5904V38.0579H62.5485V40.5904H63.5485ZM51.2391 19.5738H63.0485V18.5738H51.2391V19.5738ZM59.4983 27.0732C59.8376 26.3979 60.9403 25.3142 63.0333 25.378L63.0638 24.3785C60.5779 24.3026 59.1169 25.6048 58.6047 26.6243L59.4983 27.0732ZM63.0333 25.378C63.924 25.4052 65.0065 25.6407 66.2955 26.22L66.7055 25.3079C65.3184 24.6845 64.1072 24.4103 63.0638 24.3785L63.0333 25.378ZM62.5485 19.0738V24.8783H63.5485V19.0738H62.5485ZM51.9658 16.5H56.3262V15.5H51.9658V16.5ZM50.7391 19.0738V30.8266H51.7391V19.0738H50.7391ZM50.7391 30.8266V40.5904H51.7391V30.8266H50.7391ZM51.2391 30.3266H45.6069V31.3266H51.2391V30.3266ZM46.0978 30.9214L47.0063 26.2203L46.0244 26.0306L45.116 30.7317L46.0978 30.9214ZM45.1133 30.7472L44.3865 35.2675L45.3739 35.4262L46.1006 30.9059L45.1133 30.7472ZM44.8802 34.8469H40.7015V35.8469H44.8802V34.8469ZM39.248 26.6255H40.3381V25.6255H39.248V26.6255ZM40.8309 26.0406L39.7408 19.7122L38.7553 19.8819L39.8454 26.2103L40.8309 26.0406ZM39.248 20.297H46.5153V19.297H39.248V20.297ZM40.3381 26.6255H45.2436V25.6255H40.3381V26.6255ZM45.2436 26.6255H46.5153V25.6255H45.2436V26.6255ZM46.0251 19.6985L44.7534 26.0269L45.7338 26.224L47.0055 19.8956L46.0251 19.6985ZM41.1954 35.269L40.4687 30.6583L39.4808 30.814L40.2076 35.4247L41.1954 35.269ZM40.4687 30.6583L39.7419 26.0476L38.7541 26.2033L39.4808 30.814L40.4687 30.6583ZM28.3509 31.3266L39.9786 31.2361L39.9709 30.2362L28.3431 30.3266L28.3509 31.3266ZM30.7089 34.9428H36.5228V33.9428H30.7089V34.9428ZM14.1786 20.1435C14.7907 20.7804 15.5304 21.9296 15.7441 23.2705C15.953 24.5815 15.6667 26.106 14.1864 27.5792L14.8918 28.288C16.6091 26.5789 16.989 24.7283 16.7316 23.1131C16.479 21.5279 15.6198 20.1999 14.8996 19.4506L14.1786 20.1435ZM14.1673 27.5993C13.6024 28.2276 12.9302 29.3267 12.7322 30.6198C12.53 31.9402 12.8282 33.4454 14.1864 34.7972L14.8918 34.0884C13.7792 32.9811 13.5625 31.8042 13.7207 30.7711C13.8831 29.7106 14.4463 28.7846 14.9109 28.2679L14.1673 27.5993ZM20.3559 20.1435C20.968 20.7804 21.7077 21.9296 21.9214 23.2705C22.1303 24.5815 21.844 26.106 20.3637 27.5792L21.0691 28.288C22.7864 26.5789 23.1663 24.7283 22.9089 23.1131C22.6563 21.5279 21.7971 20.1999 21.0769 19.4506L20.3559 20.1435ZM20.3446 27.5993C19.7797 28.2276 19.1075 29.3267 18.9095 30.6198C18.7073 31.9402 19.0055 33.4454 20.3637 34.7972L21.0691 34.0884C19.9565 32.9811 19.7398 31.8042 19.898 30.7711C20.0604 29.7106 20.6236 28.7846 21.0882 28.2679L20.3446 27.5993ZM26.1698 20.1435C26.7819 20.7804 27.5216 21.9296 27.7353 23.2705C27.9442 24.5815 27.6579 26.106 26.1776 27.5792L26.883 28.288C28.6003 26.5789 28.9802 24.7283 28.7228 23.1131C28.4702 21.5279 27.611 20.1999 26.8908 19.4506L26.1698 20.1435ZM26.1585 27.5993C25.5935 28.2276 24.9214 29.3267 24.7234 30.6198C24.5212 31.9402 24.8193 33.4454 26.1776 34.7972L26.883 34.0884C25.7703 32.9811 25.5537 31.8042 25.7119 30.7711C25.8742 29.7106 26.4375 28.7846 26.9021 28.2679L26.1585 27.5993ZM11.4505 39.2823H29.9822V38.2823H11.4505V39.2823ZM29.5739 38.4936L26.122 43.3755L26.9385 43.9529L30.3904 39.071L29.5739 38.4936ZM26.5303 43.1642H15.0842V44.1642H26.5303V43.1642ZM15.4853 43.3657L11.8516 38.4838L11.0494 39.0808L14.6831 43.9627L15.4853 43.3657ZM15.0842 43.1642H11.4505V44.1642H15.0842V43.1642ZM26.5303 44.1642H29.9822V43.1642H26.5303V44.1642ZM29.5528 43.408L26.1009 49.194L26.9597 49.7064L30.4116 43.9204L29.5528 43.408ZM26.5303 48.9502H15.0842V49.9502H26.5303V48.9502ZM15.5076 49.1843L11.8739 43.3983L11.0271 43.9301L14.6607 49.7161L15.5076 49.1843ZM36.5228 41.8137H47.6054V40.8137H36.5228V41.8137ZM36.5228 44.1642H47.6054V43.1642H36.5228V44.1642ZM36.5228 46.8764H47.6054V45.8764H36.5228V46.8764ZM5.5 33.7197V49.9926H6.5V33.7197H5.5ZM5.5 49.9926V58.6717H6.5V49.9926H5.5ZM71.1792 58.6717V49.9926H70.1792V58.6717H71.1792ZM71.1792 49.9926V37.5167H70.1792V49.9926H71.1792ZM5.85491 50.4711C13.6968 52.849 37.566 56.1367 70.7631 50.4855L70.5953 49.4997C37.5144 55.1311 13.8068 51.8374 6.14509 49.5141L5.85491 50.4711ZM5.84005 59.1454C7.66026 59.76 10.0969 60.3408 12.9993 60.8497L13.172 59.8647C10.2965 59.3606 7.91415 58.7903 6.15995 58.198L5.84005 59.1454ZM10.6025 65.2653L13.5094 60.6225L12.6619 60.0919L9.75493 64.7347L10.6025 65.2653ZM12.9993 60.8497C25.2316 62.9943 45.9993 63.9048 64.5924 60.4867L64.4116 59.5032C45.9504 62.897 25.3034 61.9916 13.172 59.8647L12.9993 60.8497ZM64.5924 60.4867C66.6935 60.1004 68.7675 59.6588 70.7991 59.1571L70.5593 58.1863C68.5489 58.6827 66.4945 59.1202 64.4116 59.5032L64.5924 60.4867ZM67.8372 64.5611L64.9302 59.7369L64.0737 60.253L66.9806 65.0772L67.8372 64.5611Z" fill="white"/>
</svg>
