<svg width="22" height="22" viewBox="0 0 22 22" fill="none" xmlns="http://www.w3.org/2000/svg">
<path d="M18.3639 9.14238V8.5767C18.3639 8.49205 18.3639 8.44973 18.3634 8.41393C18.3247 5.70854 16.1409 3.52479 13.4355 3.48604C13.3997 3.48553 13.3574 3.48553 13.2728 3.48553H12.7071M8.77785 7.17339C8.32461 8.21317 8.554 9.42441 9.35605 10.2265L11.7529 12.6233C12.5549 13.4253 13.7661 13.6547 14.8059 13.2015C15.8457 12.7482 17.057 12.9776 17.859 13.7797L19.3172 15.2379C19.3879 15.3085 19.4232 15.3438 19.4518 15.375C20.1548 16.1401 20.1548 17.3162 19.4518 18.0814C19.4232 18.1125 19.3878 18.1478 19.3172 18.2185L18.4309 19.1048C17.7091 19.8266 16.6685 20.1296 15.6721 19.9082C8.88248 18.3994 3.57995 13.0968 2.07115 6.30724C1.84971 5.31078 2.15272 4.27025 2.87451 3.54846L3.76085 2.66212C3.8315 2.59147 3.86682 2.55615 3.89794 2.52755C4.6631 1.82447 5.83921 1.82447 6.60436 2.52755C6.63548 2.55615 6.67081 2.59147 6.74145 2.66212L8.19965 4.12031C9.0017 4.92236 9.23109 6.1336 8.77785 7.17339Z" stroke="white" stroke-linecap="round"/>
</svg>
