<svg width="22" height="22" viewBox="0 0 22 22" fill="none" xmlns="http://www.w3.org/2000/svg">
<path fill-rule="evenodd" clip-rule="evenodd" d="M11.5 1.95793C7.92998 1.95793 5.02375 4.6773 5.02375 8.01779C5.02375 9.01663 5.28979 10.0076 5.79454 10.886L11.4121 19.9947C11.4259 20.0169 11.4385 20.0256 11.4481 20.0306C11.4604 20.0369 11.4782 20.0421 11.4998 20.0421C11.5215 20.0421 11.5393 20.0369 11.5516 20.0306C11.5611 20.0256 11.5738 20.0169 11.5875 19.9947L17.2077 10.8826C17.7101 10.0078 17.9763 9.01682 17.9763 8.01775C17.9763 4.67731 15.07 1.95793 11.5 1.95793ZM18.1018 11.3493L12.4742 20.4735C12.0412 21.1755 10.9584 21.1755 10.5255 20.4735L4.90044 11.3528C4.31039 10.3312 4 9.17943 4 8.01779C4 4.14826 7.36458 1 11.5 1C15.6354 1 19 4.14826 19 8.01775C19 9.17939 18.6896 10.3312 18.1018 11.3493Z" fill="white"/>
<circle cx="11.5" cy="8.5" r="3" stroke="white"/>
</svg>
