<svg width="1192" height="7" viewBox="0 0 1192 7" fill="none" xmlns="http://www.w3.org/2000/svg">
<path d="M1 1L12.2736 5.54734C12.9936 5.83774 13.7981 5.83774 14.5181 5.54734L24.6694 1.45266C25.3894 1.16226 26.1939 1.16226 26.9139 1.45266L37.0653 5.54734C37.7852 5.83774 38.5898 5.83774 39.3097 5.54734L49.4611 1.45266C50.1811 1.16226 50.9856 1.16226 51.7056 1.45266L61.8569 5.54734C62.5769 5.83774 63.3814 5.83774 64.1014 5.54734L74.2528 1.45266C74.9727 1.16226 75.7773 1.16226 76.4972 1.45266L86.6486 5.54734C87.3686 5.83774 88.1731 5.83774 88.8931 5.54734L99.0444 1.45266C99.7644 1.16226 100.569 1.16226 101.289 1.45266L111.44 5.54734C112.16 5.83774 112.965 5.83774 113.685 5.54734L123.836 1.45266C124.556 1.16226 125.361 1.16226 126.081 1.45266L136.232 5.54734C136.952 5.83774 137.756 5.83774 138.476 5.54734L148.628 1.45266C149.348 1.16226 150.152 1.16226 150.872 1.45266L161.024 5.54734C161.744 5.83774 162.548 5.83774 163.268 5.54734L173.419 1.45266C174.139 1.16226 174.944 1.16226 175.664 1.45266L185.815 5.54734C186.535 5.83774 187.34 5.83774 188.06 5.54734L198.211 1.45266C198.931 1.16226 199.736 1.16226 200.456 1.45266L210.607 5.54734C211.327 5.83774 212.131 5.83774 212.851 5.54734L223.003 1.45266C223.723 1.16226 224.527 1.16226 225.247 1.45266L235.399 5.54734C236.119 5.83774 236.923 5.83774 237.643 5.54734L247.794 1.45266C248.514 1.16226 249.319 1.16226 250.039 1.45266L260.19 5.54734C260.91 5.83774 261.715 5.83774 262.435 5.54734L272.586 1.45266C273.306 1.16226 274.111 1.16226 274.831 1.45266L284.982 5.54734C285.702 5.83774 286.506 5.83774 287.226 5.54734L297.378 1.45266C298.098 1.16226 298.902 1.16226 299.622 1.45266L309.774 5.54734C310.494 5.83774 311.298 5.83774 312.018 5.54734L322.169 1.45266C322.889 1.16226 323.694 1.16226 324.414 1.45266L334.565 5.54734C335.285 5.83774 336.09 5.83774 336.81 5.54734L346.961 1.45266C347.681 1.16226 348.486 1.16226 349.206 1.45266L359.357 5.54734C360.077 5.83774 360.881 5.83774 361.601 5.54734L371.753 1.45266C372.473 1.16226 373.277 1.16226 373.997 1.45266L384.149 5.54734C384.869 5.83774 385.673 5.83774 386.393 5.54734L396.544 1.45266C397.264 1.16226 398.069 1.16226 398.789 1.45266L408.94 5.54734C409.66 5.83774 410.465 5.83774 411.185 5.54734L421.336 1.45266C422.056 1.16226 422.861 1.16226 423.581 1.45266L433.732 5.54734C434.452 5.83774 435.256 5.83774 435.976 5.54734L446.128 1.45266C446.848 1.16226 447.652 1.16226 448.372 1.45266L458.524 5.54734C459.244 5.83774 460.048 5.83774 460.768 5.54734L470.919 1.45266C471.639 1.16226 472.444 1.16226 473.164 1.45266L483.315 5.54734C484.035 5.83774 484.84 5.83774 485.56 5.54734L495.711 1.45266C496.431 1.16226 497.236 1.16226 497.956 1.45266L508.107 5.54734C508.827 5.83774 509.631 5.83774 510.351 5.54734L520.503 1.45266C521.223 1.16226 522.027 1.16226 522.747 1.45266L532.899 5.54734C533.619 5.83774 534.423 5.83774 535.143 5.54734L545.294 1.45266C546.014 1.16226 546.819 1.16226 547.539 1.45266L557.69 5.54734C558.41 5.83774 559.215 5.83774 559.935 5.54734L570.086 1.45266C570.806 1.16226 571.611 1.16226 572.331 1.45266L582.482 5.54734C583.202 5.83774 584.006 5.83774 584.726 5.54734L594.878 1.45266C595.598 1.16226 596.402 1.16226 597.122 1.45266L607.274 5.54734C607.994 5.83774 608.798 5.83774 609.518 5.54734L619.669 1.45266C620.389 1.16226 621.194 1.16226 621.914 1.45266L632.065 5.54734C632.785 5.83774 633.59 5.83774 634.31 5.54734L644.461 1.45266C645.181 1.16226 645.986 1.16226 646.706 1.45266L656.857 5.54734C657.577 5.83774 658.381 5.83774 659.101 5.54734L669.253 1.45266C669.973 1.16226 670.777 1.16226 671.497 1.45266L681.649 5.54734C682.369 5.83774 683.173 5.83774 683.893 5.54734L694.044 1.45266C694.764 1.16226 695.569 1.16226 696.289 1.45266L706.44 5.54734C707.16 5.83774 707.965 5.83774 708.685 5.54734L718.836 1.45266C719.556 1.16226 720.361 1.16226 721.081 1.45266L731.232 5.54734C731.952 5.83774 732.756 5.83774 733.476 5.54734L743.628 1.45266C744.348 1.16226 745.152 1.16226 745.872 1.45266L756.024 5.54734C756.744 5.83774 757.548 5.83774 758.268 5.54734L768.419 1.45266C769.139 1.16226 769.944 1.16226 770.664 1.45266L780.815 5.54734C781.535 5.83774 782.34 5.83774 783.06 5.54734L793.211 1.45266C793.931 1.16226 794.736 1.16226 795.456 1.45266L805.607 5.54734C806.327 5.83774 807.131 5.83774 807.851 5.54734L818.003 1.45266C818.723 1.16226 819.527 1.16226 820.247 1.45266L830.399 5.54734C831.119 5.83774 831.923 5.83774 832.643 5.54734L842.794 1.45266C843.514 1.16226 844.319 1.16226 845.039 1.45266L855.19 5.54734C855.91 5.83774 856.715 5.83774 857.435 5.54734L867.586 1.45266C868.306 1.16226 869.111 1.16226 869.831 1.45266L879.982 5.54734C880.702 5.83774 881.506 5.83774 882.226 5.54734L892.378 1.45266C893.098 1.16226 893.902 1.16226 894.622 1.45266L904.774 5.54734C905.494 5.83774 906.298 5.83774 907.018 5.54734L917.169 1.45266C917.889 1.16226 918.694 1.16226 919.414 1.45266L929.565 5.54734C930.285 5.83774 931.09 5.83774 931.81 5.54734L941.961 1.45266C942.681 1.16226 943.486 1.16226 944.206 1.45266L954.357 5.54734C955.077 5.83774 955.881 5.83774 956.601 5.54734L966.753 1.45266C967.473 1.16226 968.277 1.16226 968.997 1.45266L979.149 5.54734C979.869 5.83774 980.673 5.83774 981.393 5.54734L991.544 1.45266C992.264 1.16226 993.069 1.16226 993.789 1.45266L1003.94 5.54734C1004.66 5.83774 1005.46 5.83774 1006.18 5.54734L1016.34 1.45266C1017.06 1.16226 1017.86 1.16226 1018.58 1.45266L1028.73 5.54734C1029.45 5.83774 1030.26 5.83774 1030.98 5.54734L1041.13 1.45266C1041.85 1.16226 1042.65 1.16226 1043.37 1.45266L1053.52 5.54734C1054.24 5.83774 1055.05 5.83774 1055.77 5.54734L1065.92 1.45266C1066.64 1.16226 1067.44 1.16226 1068.16 1.45266L1078.32 5.54734C1079.04 5.83774 1079.84 5.83774 1080.56 5.54734L1090.71 1.45266C1091.43 1.16226 1092.24 1.16226 1092.96 1.45266L1103.11 5.54734C1103.83 5.83774 1104.63 5.83774 1105.35 5.54734L1115.5 1.45266C1116.22 1.16226 1117.03 1.16226 1117.75 1.45266L1127.9 5.54734C1128.62 5.83774 1129.42 5.83774 1130.14 5.54734L1140.29 1.45266C1141.01 1.16226 1141.82 1.16226 1142.54 1.45266L1152.69 5.54734C1153.41 5.83774 1154.21 5.83774 1154.93 5.54734L1165.09 1.45266C1165.81 1.16226 1166.61 1.16226 1167.33 1.45266L1177.48 5.54734C1178.2 5.83774 1179.01 5.83774 1179.73 5.54734L1191 1" stroke="#D9D9D9"/>
</svg>
