<svg width="22" height="22" viewBox="0 0 22 22" fill="none" xmlns="http://www.w3.org/2000/svg">
<path d="M2.54724 5.35399C2 6.49846 2 8.13249 2 11C2 14.3331 2 15.9996 2.85942 17.1679C3.13698 17.5452 3.47294 17.8771 3.85497 18.1512C5.03786 19 6.72524 19 10.1 19H11.9C15.2748 19 16.9621 19 18.145 18.1512C18.5271 17.8771 18.863 17.5452 19.1406 17.1679C20 15.9996 20 14.3331 20 11C20 8.11222 20 6.47542 19.4411 5.3298M2.54724 5.35399C2.6361 5.16817 2.73937 4.99526 2.85942 4.83207C3.13698 4.45476 3.47294 4.12294 3.85497 3.84881C5.03786 3 6.72524 3 10.1 3H11.9C15.2748 3 16.9621 3 18.145 3.84881C18.5271 4.12294 18.863 4.45476 19.1406 4.83207C19.2554 4.98816 19.3549 5.15314 19.4411 5.3298M2.54724 5.35399L2.9 5.66667L4.63604 7.38127C7.63604 10.3442 9.13604 11.8257 11 11.8257C12.864 11.8257 14.364 10.3442 17.364 7.38128L19.1 5.66667L19.4411 5.3298" stroke="white"/>
</svg>
