<svg width="24" height="24" viewBox="0 0 24 24" fill="none" xmlns="http://www.w3.org/2000/svg">
<rect width="24" height="24" rx="12" fill="#E2D6A7"/>
<path d="M6.36483 8.54481C6 9.29586 6 10.3682 6 12.25C6 14.4373 6 15.531 6.57295 16.2977C6.75799 16.5453 6.98196 16.7631 7.23664 16.943C8.02524 17.5 9.15016 17.5 11.4 17.5H12.6C14.8498 17.5 15.9748 17.5 16.7634 16.943C17.018 16.7631 17.242 16.5453 17.4271 16.2977C18 15.531 18 14.4373 18 12.25C18 10.3549 18 9.28075 17.6274 8.52893M6.36483 8.54481C6.42406 8.42286 6.49292 8.30939 6.57295 8.20229C6.75799 7.95468 6.98196 7.73693 7.23664 7.55703C8.02524 7 9.15016 7 11.4 7H12.6C14.8498 7 15.9748 7 16.7634 7.55703C17.018 7.73693 17.242 7.95468 17.4271 8.20229C17.5036 8.30473 17.5699 8.413 17.6274 8.52893M6.36483 8.54481L6.6 8.75L7.75736 9.87521C9.75736 11.8197 10.7574 12.7919 12 12.7919C13.2426 12.7919 14.2426 11.8197 16.2426 9.87521L17.4 8.75L17.6274 8.52893" stroke="#739276" stroke-width="0.8"/>
</svg>
