<svg width="40" height="40" viewBox="0 0 40 40" fill="none" xmlns="http://www.w3.org/2000/svg">
<path d="M20 40C31.0457 40 40 31.0457 40 20C40 8.9543 31.0457 0 20 0C8.9543 0 0 8.9543 0 20C0 31.0457 8.9543 40 20 40Z" fill="#E2D6A7"/>
<g clip-path="url(#clip0_396_533)">
<path d="M20.0028 9H19.9973C13.9321 9 9.00001 13.9335 9.00001 20C8.99625 22.3169 9.72966 24.5749 11.0941 26.4474L9.72326 30.5339L13.9514 29.1823C15.7449 30.3721 17.8504 31.0046 20.0028 31C26.0679 31 31 26.0651 31 20C31 13.9349 26.0679 9 20.0028 9ZM26.4034 24.5334C26.138 25.2827 25.0848 25.9042 24.2446 26.0857C23.6699 26.2081 22.9191 26.3057 20.3919 25.258C17.1593 23.9188 15.0775 20.6339 14.9153 20.4207C14.7599 20.2076 13.609 18.6814 13.609 17.1029C13.609 15.5244 14.4106 14.7558 14.7338 14.4258C14.9991 14.1549 15.4378 14.0311 15.8585 14.0311C15.9946 14.0311 16.117 14.038 16.227 14.0435C16.5501 14.0573 16.7124 14.0765 16.9255 14.5866C17.1909 15.226 17.8371 16.8045 17.9141 16.9668C17.9925 17.129 18.0709 17.349 17.9609 17.5621C17.8578 17.7821 17.767 17.8798 17.6048 18.0667C17.4425 18.2537 17.2885 18.3968 17.1263 18.5975C16.9778 18.7721 16.81 18.9591 16.997 19.2823C17.184 19.5985 17.8303 20.6531 18.7818 21.5001C20.0096 22.5932 21.0051 22.9425 21.3613 23.091C21.6266 23.201 21.9429 23.1749 22.1368 22.9686C22.3829 22.7033 22.6868 22.2633 22.9961 21.8301C23.2161 21.5194 23.4939 21.4809 23.7854 21.5909C24.0824 21.694 25.654 22.4709 25.9771 22.6317C26.3003 22.794 26.5134 22.871 26.5918 23.0071C26.6688 23.1433 26.6688 23.7826 26.4034 24.5334Z" fill="#739276"/>
</g>
<defs>
<clipPath id="clip0_396_533">
<rect width="22" height="22" fill="white" transform="translate(9 9)"/>
</clipPath>
</defs>
</svg>
