<svg width="40" height="40" viewBox="0 0 40 40" fill="none" xmlns="http://www.w3.org/2000/svg">
<circle cx="20" cy="20" r="20" fill="#E2D6A7"/>
<path fill-rule="evenodd" clip-rule="evenodd" d="M18.2318 26.9455H19.7261C19.7261 26.9455 20.1773 26.9001 20.4081 26.6739C20.6201 26.4659 20.6133 26.0756 20.6133 26.0756C20.6133 26.0756 20.5841 24.248 21.5145 23.9789C22.4321 23.7136 23.6101 25.7452 24.8586 26.5264C25.8027 27.1174 26.5202 26.988 26.5202 26.988L29.8589 26.9455C29.8589 26.9455 31.6053 26.8473 30.7771 25.5957C30.7094 25.4934 30.2947 24.6698 28.2947 22.9777C26.2011 21.2066 26.4817 21.4932 29.0034 18.4296C30.5392 16.5639 31.153 15.425 30.9612 14.9372C30.7785 14.4724 29.6488 14.5952 29.6488 14.5952L25.8898 14.6164C25.8898 14.6164 25.6109 14.5818 25.4044 14.6945C25.2023 14.8046 25.0727 15.0621 25.0727 15.0621C25.0727 15.0621 24.4775 16.5057 23.6843 17.7336C22.0104 20.3243 21.341 20.4614 21.0674 20.3003C20.4309 19.9253 20.5899 18.7942 20.5899 17.9905C20.5899 15.4797 21.0077 14.4329 19.7763 14.1619C19.3678 14.072 19.0668 14.0126 18.0217 14.0029C16.6804 13.9904 15.5454 14.0066 14.9025 14.2937C14.4749 14.4846 14.1449 14.9098 14.346 14.9343C14.5945 14.9645 15.157 15.0727 15.4553 15.4426C15.8406 15.9205 15.8272 16.9931 15.8272 16.9931C15.8272 16.9931 16.0486 19.9487 15.3102 20.3157C14.8036 20.5675 14.1085 20.0535 12.6161 17.703C11.8517 16.4991 11.2743 15.1681 11.2743 15.1681C11.2743 15.1681 11.1631 14.9195 10.9645 14.7864C10.7236 14.6251 10.3871 14.574 10.3871 14.574L6.81484 14.5952C6.81484 14.5952 6.27872 14.6089 6.0817 14.8214C5.90643 15.0106 6.06771 15.4015 6.06771 15.4015C6.06771 15.4015 8.86417 21.3652 12.0309 24.3705C14.9349 27.1263 18.2318 26.9455 18.2318 26.9455Z" fill="#739276"/>
</svg>
