<svg width="200" height="63" viewBox="0 0 200 63" fill="none" xmlns="http://www.w3.org/2000/svg">
<path d="M62.1366 45.1052H65.3848V44.0273H61.0044V49.7237H62.1366V45.1052Z" fill="#EFEFEF"/>
<path d="M71.6249 43.9258C69.851 43.9258 68.563 45.1633 68.563 46.8675C68.563 48.5809 69.8469 49.8255 71.6167 49.8255C73.3907 49.8255 74.6787 48.5819 74.6787 46.8675C74.6797 45.1633 73.3948 43.9258 71.6249 43.9258ZM71.6249 48.7548C70.4566 48.7548 69.6709 47.9962 69.6709 46.8675C69.6709 45.7653 70.4709 44.9965 71.6167 44.9965C72.7482 44.9965 73.5697 45.7836 73.5697 46.8675C73.5707 47.9789 72.7707 48.7548 71.6249 48.7548Z" fill="#EFEFEF"/>
<path d="M82.9618 47.6454C82.6129 48.3918 82.0319 48.7548 81.1858 48.7548C80.0308 48.7548 79.2246 47.979 79.2246 46.8676C79.2246 45.7653 80.0308 44.9966 81.1858 44.9966C81.9725 44.9966 82.5863 45.3535 82.9168 46.0002L82.9731 46.111L83.9316 45.565L83.8825 45.4653C83.4017 44.5014 82.3909 43.9248 81.1786 43.9248C79.4334 43.9248 78.1167 45.1898 78.1167 46.8665C78.1167 48.5799 79.4047 49.8245 81.1786 49.8245C82.4513 49.8245 83.5091 49.1778 83.9408 48.1366L83.9818 48.0369L83.014 47.5316L82.9618 47.6454Z" fill="#EFEFEF"/>
<path d="M86.7588 45.1133H88.8315V49.7237H89.9476V45.1133H92.0203V44.0273H86.7588V45.1133Z" fill="#EFEFEF"/>
<path d="M96.5256 48.3683V44.0273H95.4248V49.7237H96.8478L99.7103 45.3828V49.7237H100.811V44.0273H99.388L96.5256 48.3683Z" fill="#EFEFEF"/>
<path d="M109.099 46.2583H106.087V44.0273H104.97V49.7237H106.087V47.329H109.099V49.7237H110.215V44.0273H109.099V46.2583Z" fill="#EFEFEF"/>
<path d="M118.659 49.7237H119.76V44.0273H118.338L115.474 48.3683V44.0273H114.375V49.7237H115.797L118.659 45.3828V49.7237Z" fill="#EFEFEF"/>
<path d="M129.022 44.0273H127.906V48.653H125.036V44.0273H123.919V49.7237H128.659V50.769H129.776V48.653H129.022V44.0273Z" fill="#EFEFEF"/>
<path d="M134.991 44.0273L132.354 49.7247H133.558L134.099 48.5472H137.212L137.761 49.7247H138.996L136.36 44.0273H134.991ZM136.718 47.4673H134.592L135.655 45.1682L136.718 47.4673Z" fill="#EFEFEF"/>
<path d="M46.6526 57.3313C46.3835 57.2449 46.0561 57.2012 45.6817 57.2012H42.7456V62.8975H43.8464V60.9391H45.6981C47.0546 60.9391 47.8649 60.2537 47.8649 59.1047C47.8649 58.2292 47.4352 57.5988 46.6526 57.3313ZM43.8464 58.2638H45.5641C45.7973 58.2638 46.0408 58.2709 46.2403 58.3217C46.5973 58.4163 46.7641 58.6502 46.7641 59.0579C46.7641 59.4687 46.5871 59.7097 46.2004 59.8206C46.0306 59.8795 45.8116 59.8846 45.6193 59.8846H43.8464V58.2638Z" fill="#EFEFEF"/>
<path d="M52.5121 60.4876H55.564V59.4403H52.5121V58.2638H55.9956V57.2012H51.4116V62.8975H56.1061V61.8431H52.5121V60.4876Z" fill="#EFEFEF"/>
<path d="M64.4525 60.8202C64.1037 61.5666 63.5226 61.9296 62.6765 61.9296C61.5215 61.9296 60.7154 61.1538 60.7154 60.0424C60.7154 58.9401 61.5215 58.1714 62.6765 58.1714C63.4632 58.1714 64.0771 58.5283 64.4075 59.175L64.4638 59.2858L65.4224 58.7398L65.3733 58.6401C64.8924 57.6762 63.8817 57.0996 62.6694 57.0996C60.9241 57.0996 59.6074 58.3646 59.6074 60.0413C59.6074 61.7547 60.8954 62.9993 62.6694 62.9993C63.942 62.9993 64.9998 62.3526 65.4316 61.3114L65.4725 61.2117L64.5047 60.7064L64.4525 60.8202Z" fill="#EFEFEF"/>
<path d="M68.2505 58.2872H70.3221V62.8975H71.4383V58.2872H73.5109V57.2012H68.2505V58.2872Z" fill="#EFEFEF"/>
<path d="M79.6161 57.0996C77.8422 57.0996 76.5542 58.3371 76.5542 60.0413C76.5542 61.7547 77.8381 62.9993 79.608 62.9993C81.3819 62.9993 82.6699 61.7557 82.6699 60.0413C82.6709 58.3371 81.386 57.0996 79.6161 57.0996ZM79.6161 61.9286C78.4478 61.9286 77.6621 61.17 77.6621 60.0413C77.6621 58.9391 78.4622 58.1703 79.608 58.1703C80.7394 58.1703 81.5609 58.9574 81.5609 60.0413C81.562 61.1528 80.7619 61.9286 79.6161 61.9286Z" fill="#EFEFEF"/>
<path d="M90.3752 57.3313C90.1062 57.2449 89.7788 57.2012 89.4044 57.2012H86.4683V62.8975H87.569V60.9391H89.4207C90.7773 60.9391 91.5875 60.2537 91.5875 59.1047C91.5875 58.2292 91.1579 57.5988 90.3752 57.3313ZM87.569 58.2638H89.2867C89.52 58.2638 89.7635 58.2709 89.963 58.3217C90.32 58.4163 90.4867 58.6502 90.4867 59.0579C90.4867 59.4687 90.3098 59.7097 89.9231 59.8206C89.7532 59.8795 89.5343 59.8846 89.342 59.8846H87.569V58.2638Z" fill="#EFEFEF"/>
<path d="M96.7316 57.2012L94.0952 62.8975H95.2983L95.8395 61.72H98.9526L99.502 62.8975H100.737L98.1004 57.2012H96.7316ZM98.4585 60.6412H96.3326L97.3955 58.3421L98.4585 60.6412Z" fill="#EFEFEF"/>
<path d="M107.983 59.4321H104.972V57.2012H103.855V62.8975H104.972V60.5029H107.983V62.8975H109.101V57.2012H107.983V59.4321Z" fill="#EFEFEF"/>
<path d="M119.533 61.5421V57.2012H118.432V62.8975H119.855L122.718 58.5566V62.8975H123.818V57.2012H122.395L119.533 61.5421Z" fill="#EFEFEF"/>
<path d="M137.635 60.8202C137.286 61.5666 136.705 61.9296 135.859 61.9296C134.704 61.9296 133.898 61.1538 133.898 60.0424C133.898 58.9401 134.704 58.1714 135.859 58.1714C136.646 58.1714 137.26 58.5283 137.59 59.175L137.646 59.2858L138.605 58.7398L138.556 58.6401C138.075 57.6762 137.064 57.0996 135.852 57.0996C134.107 57.0996 132.79 58.3646 132.79 60.0413C132.79 61.7547 134.078 62.9993 135.852 62.9993C137.125 62.9993 138.182 62.3526 138.614 61.3114L138.655 61.2117L137.687 60.7064L137.635 60.8202Z" fill="#EFEFEF"/>
<path d="M142.186 62.8975H143.31V58.279H146.385V62.8975H147.494V57.2012H142.186V62.8975Z" fill="#EFEFEF"/>
<path d="M154.618 57.2012H153.249L150.613 62.8975H151.816L152.357 61.72H155.47L156.02 62.8975H157.254L154.618 57.2012ZM154.976 60.6412H152.85L153.913 58.3421L154.976 60.6412Z" fill="#EFEFEF"/>
<path d="M16.7225 17.2608L16.1947 17.031L16.6734 16.7117C18.3717 15.5779 19.1973 14.0913 19.1973 12.1654C19.1973 11.1099 18.8013 5.8457 10.9782 5.8457C7.97047 5.8457 5.45278 6.63173 3.05478 8.31969L2.98215 8.36951C2.22306 8.88607 1.92638 9.04469 1.15194 8.6705L0.821497 8.9847L3.94892 13.3449L4.25378 13.0663C3.70339 11.2706 5.1295 10.5811 6.08501 10.1205C7.57046 9.39754 9.21755 9.03148 10.9782 9.03148C13.1061 9.03148 15.5911 9.93647 15.5911 12.4867C15.5911 14.9668 13.3066 15.8464 11.3506 15.8464C9.01806 15.8464 8.27738 15.1722 8.11881 14.5001H7.65537V20.1852H8.11267C8.37457 18.8389 10.3419 18.8389 11.3219 18.8389C13.5685 18.8389 16.1926 19.7856 16.1926 22.4548C16.1926 25.4606 12.9537 26.5517 10.7777 26.5517C8.87688 26.5517 7.00165 26.0575 5.04561 25.0417C2.79391 23.914 2.58623 22.5392 2.63943 21.8783L2.21794 21.6932L0 27.5604L0.482873 27.8045C0.490034 27.7963 0.497195 27.7882 0.504357 27.7801C0.756023 27.4964 0.97086 27.3367 1.29414 27.3367C1.64709 27.3367 2.12996 27.5258 2.93407 27.9458C5.53462 29.3206 7.89067 29.9612 10.348 29.9612C11.769 29.9612 14.4933 29.7578 16.7737 28.3993C18.9333 27.112 20.029 25.1657 20.029 22.6155C20.028 20.0907 18.8545 18.1892 16.7225 17.2608Z" fill="#EFEFEF"/>
<path d="M34.2635 25.4368V19.2828H41.6836C42.5941 19.2828 42.9204 19.654 43.1087 20.3444H43.5465V15.2307H43.0974C42.858 15.9974 42.5726 16.2607 41.6846 16.2607H34.2645V10.2939H46.5829C47.3972 10.2939 47.6622 10.7881 47.8095 11.3555H48.273V5.83301H47.8157C47.6162 6.58242 47.1456 6.58242 46.411 6.58242H29.3979V7.12643C30.1294 7.36336 30.3719 7.75383 30.3719 8.61204V27.1217C30.3719 28.0633 30.0691 28.3886 29.3979 28.6286V29.1818H46.6688C47.5926 29.1818 47.8985 29.4146 48.0602 29.9312H48.5021V24.4087H48.0653C47.8781 25.1053 47.5671 25.4388 46.6402 25.4388H34.2635V25.4368Z" fill="#EFEFEF"/>
<path d="M78.0823 26.741L70.921 9.2604C70.7707 8.89128 70.7011 8.31982 70.9568 7.81953C71.1175 7.50532 71.3814 7.27247 71.7282 7.13418V6.58203H64.8851V7.15146C65.322 7.34568 65.6002 7.59074 65.7342 7.89681C65.944 8.37371 65.7414 8.86383 65.5787 9.25735L58.4451 26.3668C58.0666 27.2474 57.5745 28.2062 56.4932 28.6252V29.1804H63.1357V28.6353C62.8472 28.5398 62.4871 28.37 62.3132 28.008C62.1465 27.6622 62.1802 27.229 62.4176 26.684L68.4729 12.2713L74.3451 27.0043C74.5078 27.4467 74.4925 27.8361 74.3042 28.1381C74.1426 28.3984 73.8653 28.5754 73.4786 28.6648V29.1804H79.8347V28.6242C79.0736 28.3242 78.471 27.6785 78.0823 26.741Z" fill="#EFEFEF"/>
<path d="M93.0673 25.4368V19.2828H100.487C101.397 19.2828 101.724 19.654 101.911 20.3444H102.349V15.2307H101.9C101.661 15.9974 101.375 16.2607 100.487 16.2607H93.0673V10.2939H105.386C106.199 10.2939 106.465 10.7881 106.611 11.3555H107.076V5.83301H106.617C106.418 6.58242 105.947 6.58242 105.213 6.58242H88.1997V7.12643C88.9312 7.36336 89.1736 7.75383 89.1736 8.61204V27.1217C89.1736 28.0633 88.8708 28.3886 88.1997 28.6286V29.1818H105.471C106.394 29.1818 106.699 29.4146 106.862 29.9312H107.304V24.4087H106.867C106.68 25.1053 106.369 25.4388 105.442 25.4388H93.0673V25.4368Z" fill="#EFEFEF"/>
<path d="M133.199 8.61063V16.1048H121.252V8.61063C121.252 7.7575 121.504 7.35585 122.226 7.12401V6.58203H116.357V7.12096C117.097 7.3467 117.331 7.72801 117.331 8.61063V27.1203C117.331 28.072 117.094 28.3669 116.357 28.6272V29.1804H122.226V28.6272C121.49 28.3669 121.252 28.072 121.252 27.1203V19.4705H133.199V27.1203C133.199 28.0995 132.906 28.4249 132.254 28.6364V29.1804H138.094V28.6353C137.298 28.373 137.149 27.9815 137.149 27.1203V8.61063C137.149 7.71988 137.368 7.35076 138.094 7.12299V6.58203H132.254V7.11994C132.998 7.34161 133.199 7.68937 133.199 8.61063Z" fill="#EFEFEF"/>
<path d="M169.373 26.3139L162.862 9.25328C162.694 8.85163 162.529 8.31982 162.763 7.84393C162.919 7.52668 163.217 7.2928 163.674 7.13113V6.58203H154.138V7.13621C154.585 7.30399 154.878 7.54091 155.03 7.85715C155.258 8.331 155.09 8.85061 154.944 9.20041L148.417 26.2956C148.036 27.1264 147.534 28.2215 146.461 28.6282V29.1804H152.932V28.6394C152.559 28.5143 152.298 28.3079 152.153 28.0232C151.954 27.6327 151.994 27.1182 152.271 26.4939L153.162 23.8094H164.642L165.605 26.5162C165.86 27.0867 165.891 27.587 165.69 27.9815C165.534 28.2876 165.252 28.5082 164.849 28.6404V29.1814H171.32V28.6292C170.248 28.2205 169.746 27.1263 169.373 26.3139ZM154.146 21.005L158.007 10.1379H159.772L163.663 21.005H154.146Z" fill="#EFEFEF"/>
<path d="M200 7.12604V6.58203H187.627C185.686 6.58203 179.351 7.05283 179.351 13.1061C179.351 17.4389 182.288 19.0658 184.753 19.6668L185.194 19.7746L180.672 26.4227C179.915 27.5433 179.129 28.2296 178.148 28.6191V29.1804H185.134V28.6465C184.658 28.4899 184.389 28.1483 184.389 27.6826C184.389 27.2362 184.672 26.7583 184.908 26.4359L189.235 20.0959H195.105V27.1528C195.105 28.0954 194.767 28.431 194.102 28.6394V29.1814H200V28.6374C199.278 28.3994 199.026 27.9988 199.026 27.1528V8.61165C199.027 7.75344 199.27 7.36399 200 7.12604ZM195.106 16.9793H188.66C186.846 16.9793 183.072 16.9793 183.072 13.4498C183.072 9.82373 187.385 9.82373 188.802 9.82373H195.105V16.9793H195.106Z" fill="#EFEFEF"/>
<path d="M96.9133 1.93123C96.8622 1.98919 96.8213 2.03902 96.7763 2.08376C96.2179 2.63997 95.6553 3.1911 95.1031 3.75342C94.9824 3.87646 94.9179 3.87645 94.7962 3.7524C94.245 3.19008 93.6865 2.63387 93.1189 2.08681C92.9809 1.9536 92.9982 1.88242 93.1251 1.75938C93.6906 1.21029 94.247 0.652041 94.8034 0.0948108C94.8883 0.0104127 94.9425 -0.0556821 95.0652 0.0693897C95.6369 0.652041 96.2199 1.22351 96.7978 1.79904C96.8366 1.83565 96.8694 1.87937 96.9133 1.93123Z" fill="#EFEFEF"/>
<path d="M103.477 1.93123C103.426 1.98919 103.385 2.03902 103.34 2.08376C102.781 2.63997 102.219 3.1911 101.666 3.75342C101.545 3.87646 101.48 3.87645 101.359 3.7524C100.807 3.19008 100.249 2.63387 99.6814 2.08681C99.5434 1.9536 99.5607 1.88242 99.6876 1.75938C100.253 1.21029 100.81 0.652041 101.366 0.0948108C101.451 0.0104127 101.505 -0.0556821 101.628 0.0693897C102.199 0.652041 102.782 1.22351 103.36 1.79904C103.399 1.83565 103.432 1.87937 103.477 1.93123Z" fill="#EFEFEF"/>
</svg>
