<svg width="24" height="24" viewBox="0 0 24 24" fill="none" xmlns="http://www.w3.org/2000/svg">
<rect width="24" height="24" rx="12" fill="#E2D6A7"/>
<path d="M12 19L11.7321 18.6744C11.5536 18.4376 7 13.1395 7 9.97252C7 7.21987 9.2619 5 12 5C14.7381 5 17 7.24947 17 9.97252C17 13.1395 12.4464 18.4672 12.2679 18.6744L12 19ZM12 5.68076C9.61905 5.68076 7.71429 7.60465 7.71429 9.94292C7.71429 12.4292 11.0179 16.6617 12 17.8753C12.9821 16.6617 16.2857 12.4588 16.2857 9.94292C16.2857 7.60465 14.381 5.68076 12 5.68076Z" fill="#739276"/>
<path d="M12 12C10.9062 12 10 11.0938 10 10C10 8.90625 10.9062 8 12 8C13.0937 8 14 8.90625 14 10C14 11.0938 13.0937 12 12 12ZM12 8.75C11.3125 8.75 10.75 9.3125 10.75 10C10.75 10.6875 11.3125 11.25 12 11.25C12.6875 11.25 13.25 10.6875 13.25 10C13.25 9.3125 12.6875 8.75 12 8.75Z" fill="#739276"/>
</svg>
