<svg width="24" height="24" viewBox="0 0 24 24" fill="none" xmlns="http://www.w3.org/2000/svg">
<rect width="24" height="24" rx="12" fill="#E2D6A7"/>
<path d="M16.922 10.767V10.3894C16.922 10.3329 16.922 10.3047 16.9217 10.2808C16.8958 8.47508 15.4383 7.01755 13.6326 6.99168C13.6087 6.99134 13.5804 6.99134 13.5239 6.99134H13.1464M10.5238 9.45277C10.2213 10.1468 10.3744 10.9552 10.9097 11.4905L12.5095 13.0903C13.0448 13.6256 13.8532 13.7787 14.5472 13.4762C15.2412 13.1737 16.0497 13.3268 16.585 13.8621L17.5582 14.8354C17.6054 14.8825 17.629 14.9061 17.6481 14.9269C18.1173 15.4375 18.1173 16.2225 17.6481 16.7332C17.629 16.754 17.6054 16.7776 17.5582 16.8247L16.9667 17.4163C16.4849 17.8981 15.7904 18.1003 15.1253 17.9525C10.5937 16.9455 7.05453 13.4063 6.04749 8.87468C5.89969 8.20959 6.10193 7.5151 6.58369 7.03334L7.17527 6.44176C7.22242 6.39461 7.246 6.37103 7.26677 6.35195C7.77746 5.88268 8.56245 5.88268 9.07315 6.35195C9.09392 6.37103 9.11749 6.39461 9.16465 6.44176L10.1379 7.41502C10.6732 7.95035 10.8263 8.75878 10.5238 9.45277Z" stroke="#739276" stroke-width="0.8" stroke-linecap="round"/>
</svg>
