<svg width="203" height="133" viewBox="0 0 203 133" fill="none" xmlns="http://www.w3.org/2000/svg">
<path d="M0 0H203V128.87C203 130.908 201.011 132.353 199.072 131.723L106.138 101.508C103.124 100.528 99.8764 100.528 96.8621 101.508L3.92758 131.723C1.98912 132.353 0 130.908 0 128.87V0Z" fill="#465948"/>
<path d="M141.075 57.2089C142.117 56.166 143.159 55.124 144.21 54.0906C143.212 53.1073 142.221 52.1165 141.229 51.1266C140.225 50.1226 139.221 49.1194 138.209 48.1229C137.628 47.5508 137.359 46.9067 137.36 46.0958C137.37 40.0344 137.372 33.972 137.373 27.9106L137.376 17.8063C137.376 17.3431 137.404 16.879 137.433 16.4148L137.467 15.8408C137.613 12.9669 138.821 10.8981 141.059 9.68371C141.081 9.46395 141.093 9.08884 141.074 8.44661L134.46 8.44282C130.87 8.44187 127.281 8.44093 123.691 8.43335C123.725 8.8795 123.779 9.38438 123.838 9.70455C125.564 10.6319 126.695 12.2015 127.12 14.2722C127.331 15.2999 127.348 16.3059 127.347 17.3318C127.342 27.2797 127.339 37.2277 127.357 47.1757C127.357 47.4741 127.359 48.1741 126.843 48.6913C126.381 49.1535 125.773 49.2085 125.354 49.2085C125.352 49.2085 125.35 49.2085 125.348 49.2085C109.33 49.1867 93.2851 49.1876 77.6565 49.2085C77.1497 49.2056 76.5842 49.1497 76.1181 48.6837C75.5943 48.1589 75.5953 47.4456 75.5962 47.1406C75.6133 39.8724 75.6133 32.6042 75.6133 25.336L75.6142 17.508C75.6142 16.8951 75.6341 16.3343 75.6748 15.7934C75.8823 13.0038 77.1109 10.9691 79.3265 9.7396C79.3842 9.43364 79.4041 8.91455 79.4013 8.45229C73.5558 8.43998 67.7085 8.43998 61.8612 8.45229C61.882 8.90508 61.9303 9.42606 62.0013 9.72729C63.8134 10.6944 64.9965 12.3313 65.4342 14.4843C65.6255 15.4259 65.652 16.3751 65.6511 17.2598C65.6454 26.9965 65.6435 36.7323 65.6577 46.4681C65.6587 47.2742 65.3859 47.9193 64.7967 48.4999C63.8144 49.468 62.8387 50.4427 61.864 51.4165C60.9632 52.3164 60.0633 53.2163 59.1577 54.1105C60.0917 55.0321 60.9963 55.9358 61.9009 56.8395C62.8596 57.7971 63.8191 58.7558 64.7853 59.7068C65.383 60.295 65.6606 60.9609 65.6587 61.803C65.6463 68.4252 65.6463 75.0465 65.6463 81.6677V88.3619C65.6463 89.1879 65.6463 90.0148 65.6179 90.8399C65.5166 93.8152 64.2643 95.9616 61.8924 97.2272C61.8612 97.4356 61.8327 97.8258 61.8479 98.5372C67.6981 98.5467 73.5473 98.5457 79.3975 98.5363C79.4183 97.8145 79.3852 97.4195 79.353 97.213C77.0578 95.9806 75.7838 93.8512 75.6625 91.0312L75.6549 90.8636C75.6341 90.3843 75.6133 89.904 75.6133 89.4238L75.6123 81.5711C75.6123 74.0755 75.6114 66.58 75.5972 59.0844C75.5962 58.6203 75.6549 58.0283 76.1172 57.566C76.587 57.0971 77.2122 57.0469 77.6233 57.046C83.9661 57.0649 90.3088 57.064 96.6506 57.0621L101.466 57.0611H106.859C112.987 57.0611 119.112 57.063 125.239 57.046C125.579 57.0498 126.303 57.0422 126.831 57.5698C127.309 58.0482 127.362 58.6857 127.361 59.1233C127.337 66.9864 127.338 74.8494 127.339 82.7135V89.3916C127.339 89.8377 127.338 90.2829 127.314 90.7272C127.153 93.8569 125.96 96.0014 123.672 97.2679C123.645 97.4867 123.627 97.8684 123.645 98.5363C125.925 98.5391 128.205 98.5401 130.485 98.541C133.998 98.5419 137.51 98.5438 141.022 98.5533C140.973 98.0693 140.892 97.4801 140.815 97.1343C139.114 96.1435 138.015 94.5711 137.627 92.5648C137.402 91.4054 137.371 90.2469 137.371 89.1671L137.368 79.3754C137.367 73.6104 137.366 67.8446 137.357 62.0796C137.356 61.2754 137.629 60.6304 138.218 60.0497C139.177 59.1062 140.126 58.158 141.075 57.2089Z" fill="#3B4E3D"/>
<path d="M153.962 51.6938C152.418 50.7674 151.153 49.733 150.073 48.458C146.66 44.4275 146.806 35.7782 153.407 31.9229C156.625 30.0426 160.127 29.2555 163.8 29.1096C170.324 28.851 176.304 30.4888 181.641 34.3138C182.636 35.027 183.68 35.5442 184.91 34.8565C185.157 34.7192 185.315 34.8414 185.471 34.9863C185.745 35.2402 185.472 35.4107 185.349 35.5802C183.559 38.0346 181.763 40.4832 179.968 42.9347C179.772 43.2008 179.591 43.4765 179.382 43.7313C179.279 43.8573 179.233 44.132 178.972 44.0022C178.747 43.8904 178.635 43.736 178.721 43.4348C178.876 42.892 178.962 42.3341 178.878 41.7591C178.678 40.4017 177.832 39.5189 176.727 38.8501C174.025 37.2152 171.081 36.2736 167.956 35.8966C165.696 35.6248 163.441 35.5982 161.212 36.1694C160.456 36.3636 159.728 36.6336 159.037 36.9954C156.771 38.1842 155.545 40.0219 155.564 42.6183C155.582 45.1853 156.782 47.0457 159.076 48.1275C162.217 49.608 165.476 49.5294 168.735 48.5689C169.584 48.3188 170.276 47.7533 170.603 46.8619C170.678 46.6592 170.74 46.4556 171.033 46.5096C171.32 46.5626 171.242 46.7862 171.242 46.9548C171.248 50.5619 171.248 54.168 171.243 57.7751C171.243 57.9419 171.332 58.172 171.052 58.2355C170.755 58.3028 170.711 58.0925 170.645 57.8822C170.333 56.897 169.627 56.2595 168.67 56.0256C164.898 55.102 161.157 55.1172 157.674 57.0297C153.191 59.4915 153.126 65.5946 157.517 68.5766C160.172 70.3801 163.187 70.9333 166.345 70.7903C170.552 70.5999 174.429 69.287 178.073 67.2372C179.232 66.5855 180.273 65.7775 181.033 64.6578C181.615 63.8015 181.986 62.8732 181.994 61.8237C181.996 61.6067 181.965 61.3737 182.254 61.3283C182.571 61.2781 182.546 61.5651 182.615 61.7431C184.038 65.426 185.458 69.1108 186.88 72.7947C186.963 73.0087 187.127 73.202 186.825 73.3999C186.522 73.5979 186.35 73.4473 186.169 73.237C185.51 72.4679 184.691 72.5095 183.839 72.8003C182.79 73.1575 181.817 73.6803 180.83 74.1767C175.977 76.6206 170.875 78.0661 165.397 77.8861C160.965 77.7402 156.7 76.9029 152.799 74.6503C145.619 70.5042 145.19 62.7349 147.154 57.8471C148.215 55.2062 150.19 53.4055 152.757 52.23C153.116 52.0642 153.48 51.907 153.962 51.6938Z" fill="#3B4E3D"/>
<path d="M49.0982 51.7129C49.3947 51.8588 49.6201 51.9829 49.856 52.0823C53.9395 53.8035 56.2423 56.8906 56.7188 61.2668C57.1469 65.1941 56.3626 68.8306 53.6478 71.8637C51.4748 74.2905 48.6937 75.7445 45.6142 76.6454C37.7094 78.9576 30.0964 78.0672 22.7439 74.4781C21.6451 73.941 20.5492 73.3935 19.4276 72.9075C18.4586 72.4879 17.4962 72.4178 16.7251 73.3423C16.5499 73.5526 16.3917 73.528 16.1814 73.4048C15.8698 73.222 16.0374 73.0023 16.116 72.7957C16.9401 70.6455 17.7671 68.4962 18.5978 66.3479C19.1993 64.7915 19.8065 63.2371 20.4137 61.6836C20.4753 61.5245 20.4696 61.2829 20.749 61.3388C20.9792 61.3852 21.0086 61.5482 21.0114 61.7613C21.0427 63.8064 22.1102 65.3049 23.6931 66.416C26.9307 68.6866 30.5634 70.0071 34.4642 70.5925C37.7473 71.085 40.9585 70.8804 44.0058 69.4406C46.211 68.3996 47.8829 66.8584 48.4815 64.389C49.2393 61.2611 47.9899 58.4564 45.1586 56.9351C42.8407 55.6894 40.3286 55.4129 37.7521 55.5123C36.7167 55.5521 35.6785 55.6137 34.6745 55.913C33.6117 56.2303 32.7298 56.7636 32.3585 57.888C32.294 58.0841 32.2164 58.2404 31.9691 58.1902C31.6973 58.1352 31.757 57.9145 31.757 57.7383C31.7541 54.1549 31.7541 50.5724 31.7588 46.989C31.7588 46.8213 31.6774 46.5978 31.9653 46.5438C32.2533 46.4898 32.3234 46.6821 32.402 46.8876C32.7279 47.7449 33.3824 48.2962 34.217 48.5529C37.5238 49.5693 40.8164 49.6318 43.9963 48.1001C46.3815 46.9511 47.5153 44.9818 47.4358 42.3399C47.3581 39.7682 46.0244 38.0129 43.768 36.9103C41.2626 35.6855 38.5819 35.5993 35.8803 35.8191C32.9145 36.0597 30.0926 36.8563 27.4347 38.208C26.7025 38.5803 25.9873 38.9848 25.3735 39.5351C24.3021 40.4947 23.8797 41.6778 24.1998 43.1006C24.2254 43.2152 24.2245 43.3412 24.2709 43.4454C24.3978 43.7276 24.2709 43.9 24.036 44.0165C23.7632 44.152 23.7347 43.8764 23.6391 43.7456C22.114 41.6816 20.5927 39.6138 19.0724 37.5459C18.5846 36.8819 18.0958 36.2188 17.6146 35.5501C17.5 35.39 17.2954 35.2327 17.5255 35.0054C17.6875 34.8463 17.8467 34.7411 18.0844 34.8718C19.3149 35.5491 20.3398 35.0329 21.3524 34.3281C23.6817 32.7083 26.1445 31.3273 28.8688 30.4975C34.9397 28.6484 41.0163 28.4562 47.0408 30.6907C49.4231 31.5745 51.4852 32.9537 53.0131 35.0405C56.6733 40.04 55.5574 47.1169 50.5351 50.7297C50.0814 51.0555 49.6135 51.3615 49.0982 51.7129Z" fill="#3B4E3D"/>
<path d="M118.204 76.1707C118.204 80.366 118.208 84.5614 118.2 88.7567C118.199 89.3686 118.272 89.8792 119.011 90.0289C119.503 90.1283 119.273 90.5612 119.289 90.853C119.307 91.176 119.049 91.2025 118.794 91.2025C116.2 91.2006 113.606 91.2025 111.012 91.1997C110.806 91.1997 110.527 91.2375 110.571 90.9117C110.614 90.6019 110.317 90.1198 110.846 90.0184C111.951 89.8072 112.14 89.1062 112.133 88.1069C112.099 82.6385 112.111 77.17 112.128 71.7025C112.13 71.1787 112.036 70.976 111.448 70.9864C109.278 71.0252 107.108 71.0129 104.939 70.993C104.483 70.9892 104.272 71.0546 104.277 71.5907C104.302 74.8673 104.301 78.1428 104.283 81.4194C104.278 82.2548 104.534 82.8469 105.413 83.0297C105.936 83.1386 105.783 83.5469 105.792 83.8774C105.802 84.299 105.473 84.2099 105.235 84.2099C102.758 84.2156 100.282 84.2166 97.8063 84.208C97.578 84.2071 97.2351 84.3274 97.2322 83.9011C97.2303 83.5478 97.1006 83.1774 97.6566 83.0164C98.5527 82.755 98.7885 82.4026 98.7914 81.4696C98.8037 78.1466 98.7895 74.8227 98.8056 71.4998C98.8075 71.0773 98.6502 70.994 98.2685 70.9959C95.9108 71.0101 93.5522 71.0129 91.1935 70.994C90.754 70.9902 90.6375 71.1323 90.6384 71.5576C90.6508 77.2846 90.6489 83.0126 90.646 88.7406C90.646 89.5903 90.9311 90.2126 91.8528 90.3765C92.3795 90.4703 92.1228 90.8899 92.1682 91.1741C92.226 91.5321 91.9646 91.5227 91.7174 91.5227C89.1229 91.5208 86.5293 91.5217 83.9348 91.5217C83.7008 91.5217 83.4157 91.5596 83.4536 91.194C83.4839 90.9041 83.2528 90.5053 83.7548 90.3775C84.3724 90.2202 84.5306 89.7513 84.5353 89.1887C84.542 88.482 84.5477 87.7744 84.5477 87.0678C84.5486 79.2426 84.5458 71.4174 84.56 63.5922C84.5609 63.326 84.3042 62.8571 84.8546 62.8145C85.2827 62.7814 85.7867 62.6175 85.9638 63.3128C86.1191 63.9228 86.606 64.2155 87.2435 64.2287C87.4794 64.2335 87.7152 64.2449 87.9502 64.2449C96.9111 64.2458 105.873 64.2458 114.834 64.2449C115.093 64.2449 115.352 64.2344 115.612 64.2221C116.191 64.1937 116.654 63.9171 116.771 63.3592C116.939 62.5625 117.513 62.7946 117.971 62.8211C118.371 62.8448 118.191 63.2285 118.191 63.4444C118.207 67.6862 118.204 71.9289 118.204 76.1707Z" fill="#3B4E3D"/>
<path d="M84.5517 30.1857C84.5517 26.1315 84.5545 22.0763 84.5488 18.0221C84.5479 17.3003 84.6644 16.534 83.6224 16.3199C83.2682 16.247 83.4813 15.7876 83.4586 15.5043C83.433 15.1813 83.6897 15.2126 83.9009 15.2126C86.5191 15.2116 89.1364 15.2126 91.7545 15.2116C91.9734 15.2116 92.2234 15.1993 92.1675 15.5214C92.1173 15.8093 92.3996 16.265 91.9288 16.3587C90.7078 16.6003 90.5866 17.4178 90.5932 18.4664C90.6264 23.8647 90.6216 29.2621 90.5913 34.6605C90.5875 35.3103 90.7808 35.4363 91.3832 35.4268C93.5287 35.3908 95.6752 35.4003 97.8216 35.4221C98.3 35.4268 98.4781 35.3074 98.4752 34.7988C98.4554 31.5459 98.4563 28.2931 98.4696 25.0403C98.4724 24.1963 98.2507 23.5493 97.3215 23.3665C96.7891 23.2623 96.971 22.8455 96.953 22.5234C96.9303 22.1133 97.2381 22.1692 97.492 22.1692C99.9918 22.1673 102.492 22.1692 104.992 22.1673C105.269 22.1673 105.542 22.1682 105.517 22.5499C105.498 22.8464 105.661 23.1761 105.181 23.3494C104.097 23.7397 103.949 23.9812 103.947 25.1094C103.941 28.3386 103.953 31.5687 103.936 34.7978C103.933 35.2629 104.019 35.459 104.546 35.4524C106.857 35.424 109.169 35.4259 111.48 35.4514C111.977 35.4571 112.112 35.3141 112.11 34.8196C112.093 29.139 112.095 23.4574 112.103 17.7768C112.104 16.8835 111.877 16.2015 110.87 16.0168C110.369 15.9249 110.6 15.4958 110.569 15.2041C110.528 14.8233 110.83 14.8867 111.053 14.8858C113.624 14.882 116.194 14.882 118.765 14.8867C118.984 14.8867 119.298 14.8157 119.291 15.1785C119.285 15.4731 119.489 15.8775 119.012 16.0121C118.288 16.2176 118.204 16.7708 118.204 17.3988C118.208 21.9484 118.206 26.4981 118.206 31.0477C118.206 34.9844 118.211 38.9212 118.196 42.8579C118.195 43.1071 118.421 43.5551 117.905 43.5684C117.511 43.5778 116.998 43.8175 116.809 43.1554C116.627 42.5169 116.156 42.2005 115.494 42.1693C115.212 42.156 114.93 42.138 114.647 42.138C105.779 42.1361 96.9113 42.1352 88.0432 42.1409C87.6444 42.1409 87.2419 42.175 86.8478 42.2337C86.3145 42.3133 86.0322 42.6941 85.9129 43.179C85.7642 43.7787 85.3038 43.5684 84.9429 43.5788C84.4503 43.593 84.5574 43.2027 84.5574 42.9167C84.5507 38.6721 84.5517 34.4284 84.5517 30.1857Z" fill="#3B4E3D"/>
<path d="M170.074 93.7299C169.945 93.8748 169.843 94.0008 169.731 94.1135C168.332 95.5145 166.921 96.9041 165.538 98.3202C165.235 98.6309 165.074 98.6309 164.769 98.3174C163.387 96.8993 161.988 95.4984 160.567 94.1201C160.221 93.7848 160.264 93.6058 160.582 93.2941C161.998 91.9111 163.392 90.5045 164.788 89.1007C165 88.8875 165.137 88.7227 165.444 89.0372C166.875 90.5054 168.335 91.9443 169.785 93.3955C169.88 93.4902 169.963 93.6001 170.074 93.7299Z" fill="#3B4E3D"/>
<path d="M40.5327 8.43326C40.6095 8.50241 40.7165 8.59145 40.815 8.68901C42.216 10.0871 43.6084 11.4938 45.0208 12.8796C45.322 13.1752 45.3542 13.3637 45.035 13.6763C43.6208 15.0602 42.2188 16.4583 40.8368 17.8744C40.5166 18.2022 40.3404 18.1501 40.0496 17.8536C38.6629 16.4413 37.2619 15.0431 35.8505 13.6554C35.5767 13.3864 35.5332 13.2216 35.8325 12.9289C37.2638 11.5279 38.6714 10.1033 40.0904 8.68996C40.2021 8.57913 40.2902 8.41905 40.5327 8.43326Z" fill="#3B4E3D"/>
<path d="M74.4272 58.2184H76.7497V57.4485H73.6177V61.5173H74.4272V58.2184Z" fill="white"/>
<path d="M81.2118 57.3757C79.9434 57.3757 79.0225 58.2597 79.0225 59.477C79.0225 60.7008 79.9405 61.5898 81.2059 61.5898C82.4743 61.5898 83.3952 60.7015 83.3952 59.477C83.3959 58.2597 82.4772 57.3757 81.2118 57.3757ZM81.2118 60.825C80.3764 60.825 79.8146 60.2832 79.8146 59.477C79.8146 58.6896 80.3867 58.1405 81.2059 58.1405C82.0149 58.1405 82.6023 58.7027 82.6023 59.477C82.603 60.2708 82.031 60.825 81.2118 60.825Z" fill="white"/>
<path d="M89.3178 60.0328C89.0683 60.566 88.6529 60.8253 88.0479 60.8253C87.2221 60.8253 86.6457 60.2711 86.6457 59.4772C86.6457 58.6899 87.2221 58.1408 88.0479 58.1408C88.6104 58.1408 89.0493 58.3957 89.2856 58.8577L89.3258 58.9368L90.0112 58.5468L89.9761 58.4756C89.6323 57.7871 88.9096 57.3752 88.0428 57.3752C86.7949 57.3752 85.8535 58.2788 85.8535 59.4765C85.8535 60.7003 86.7744 61.5893 88.0428 61.5893C88.9528 61.5893 89.7091 61.1274 90.0178 60.3836L90.047 60.3125L89.3551 59.9515L89.3178 60.0328Z" fill="white"/>
<path d="M92.0322 58.2242H93.5142V61.5173H94.3122V58.2242H95.7942V57.4485H92.0322V58.2242Z" fill="white"/>
<path d="M99.0156 60.5491V57.4485H98.2285V61.5173H99.246L101.293 58.4167V61.5173H102.08V57.4485H101.062L99.0156 60.5491Z" fill="white"/>
<path d="M108.005 59.042H105.852V57.4485H105.053V61.5173H105.852V59.8068H108.005V61.5173H108.803V57.4485H108.005V59.042Z" fill="white"/>
<path d="M114.841 61.5173H115.628V57.4485H114.612L112.564 60.5491V57.4485H111.778V61.5173H112.795L114.841 58.4167V61.5173Z" fill="white"/>
<path d="M122.251 57.4485H121.453V60.7525H119.4V57.4485H118.602V61.5173H121.991V62.264H122.79V60.7525H122.251V57.4485Z" fill="white"/>
<path d="M126.518 57.4485L124.633 61.518H125.494L125.88 60.677H128.106L128.499 61.518H129.382L127.497 57.4485H126.518ZM127.753 59.9056H126.233L126.993 58.2634L127.753 59.9056Z" fill="white"/>
<path d="M63.3565 66.9516C63.1641 66.8899 62.93 66.8586 62.6623 66.8586H60.563V70.9275H61.3501V69.5286H62.674C63.6439 69.5286 64.2233 69.039 64.2233 68.2183C64.2233 67.5929 63.9161 67.1426 63.3565 66.9516ZM61.3501 67.6176H62.5782C62.745 67.6176 62.9191 67.6227 63.0617 67.659C63.317 67.7266 63.4362 67.8936 63.4362 68.1849C63.4362 68.4783 63.3097 68.6505 63.0332 68.7296C62.9117 68.7718 62.7552 68.7754 62.6177 68.7754H61.3501V67.6176Z" fill="white"/>
<path d="M67.5461 69.2061H69.7282V68.458H67.5461V67.6176H70.0368V66.8586H66.7593V70.9275H70.1158V70.1743H67.5461V69.2061Z" fill="white"/>
<path d="M76.0834 69.4427C75.834 69.9759 75.4185 70.2352 74.8136 70.2352C73.9877 70.2352 73.4113 69.681 73.4113 68.8871C73.4113 68.0998 73.9877 67.5507 74.8136 67.5507C75.3761 67.5507 75.8149 67.8056 76.0512 68.2676L76.0914 68.3467L76.7768 67.9567L76.7417 67.8855C76.3979 67.197 75.6752 66.7852 74.8084 66.7852C73.5605 66.7852 72.6191 67.6887 72.6191 68.8864C72.6191 70.1102 73.5401 70.9993 74.8084 70.9993C75.7184 70.9993 76.4747 70.5373 76.7834 69.7936L76.8127 69.7224L76.1207 69.3614L76.0834 69.4427Z" fill="white"/>
<path d="M78.7988 67.6344H80.2801V70.9275H81.0781V67.6344H82.5601V66.8586H78.7988V67.6344Z" fill="white"/>
<path d="M86.9251 66.7859C85.6568 66.7859 84.7358 67.6698 84.7358 68.8871C84.7358 70.111 85.6538 71 86.9193 71C88.1877 71 89.1086 70.1117 89.1086 68.8871C89.1093 67.6698 88.1906 66.7859 86.9251 66.7859ZM86.9251 70.2352C86.0898 70.2352 85.528 69.6933 85.528 68.8871C85.528 68.0998 86.1 67.5507 86.9193 67.5507C87.7283 67.5507 88.3157 68.1129 88.3157 68.8871C88.3164 69.681 87.7444 70.2352 86.9251 70.2352Z" fill="white"/>
<path d="M94.6182 66.9516C94.4258 66.8899 94.1917 66.8586 93.924 66.8586H91.8247V70.9275H92.6118V69.5286H93.9357C94.9057 69.5286 95.485 69.039 95.485 68.2183C95.485 67.5929 95.1778 67.1426 94.6182 66.9516ZM92.6118 67.6176H93.8399C94.0067 67.6176 94.1808 67.6227 94.3234 67.659C94.5787 67.7266 94.6979 67.8936 94.6979 68.1849C94.6979 68.4783 94.5714 68.6505 94.2949 68.7296C94.1735 68.7718 94.0169 68.7754 93.8794 68.7754H92.6118V67.6176Z" fill="white"/>
<path d="M99.1628 66.8586L97.2778 70.9275H98.138L98.525 70.0864H100.751L101.144 70.9275H102.027L100.142 66.8586H99.1628ZM100.398 69.3158H98.8776L99.6376 67.6736L100.398 69.3158Z" fill="white"/>
<path d="M107.208 68.4522H105.054V66.8586H104.256V70.9275H105.054V69.217H107.208V70.9275H108.007V66.8586H107.208V68.4522Z" fill="white"/>
<path d="M115.466 69.9593V66.8586H114.679V70.9275H115.696L117.743 67.8268V70.9275H118.53V66.8586H117.512L115.466 69.9593Z" fill="white"/>
<path d="M128.409 69.4427C128.16 69.9759 127.744 70.2352 127.139 70.2352C126.313 70.2352 125.737 69.681 125.737 68.8871C125.737 68.0998 126.313 67.5507 127.139 67.5507C127.702 67.5507 128.141 67.8056 128.377 68.2676L128.417 68.3467L129.103 67.9567L129.067 67.8855C128.724 67.197 128.001 66.7852 127.134 66.7852C125.886 66.7852 124.945 67.6887 124.945 68.8864C124.945 70.1102 125.866 70.9993 127.134 70.9993C128.044 70.9993 128.8 70.5373 129.109 69.7936L129.138 69.7224L128.446 69.3614L128.409 69.4427Z" fill="white"/>
<path d="M131.663 70.9275H132.467V67.6285H134.665V70.9275H135.458V66.8586H131.663V70.9275Z" fill="white"/>
<path d="M140.552 66.8586H139.573L137.688 70.9275H138.548L138.935 70.0864H141.161L141.554 70.9275H142.437L140.552 66.8586ZM140.808 69.3158H139.288L140.048 67.6736L140.808 69.3158Z" fill="white"/>
<path d="M41.9566 38.3297L41.5792 38.1655L41.9215 37.9375C43.1358 37.1276 43.7261 36.0657 43.7261 34.6901C43.7261 33.9362 43.443 30.176 37.8494 30.176C35.6989 30.176 33.8987 30.7375 32.1842 31.9432L32.1322 31.9787C31.5895 32.3477 31.3774 32.461 30.8236 32.1937L30.5874 32.4182L32.8235 35.5326L33.0415 35.3336C32.6479 34.0509 33.6676 33.5585 34.3508 33.2295C35.4129 32.7131 36.5906 32.4516 37.8494 32.4516C39.3709 32.4516 41.1476 33.098 41.1476 34.9196C41.1476 36.6911 39.5142 37.3194 38.1157 37.3194C36.4479 37.3194 35.9183 36.8378 35.805 36.3577H35.4736V40.4186H35.8006C35.9878 39.4569 37.3944 39.4569 38.0952 39.4569C39.7015 39.4569 41.5777 40.1331 41.5777 42.0397C41.5777 44.1867 39.2619 44.966 37.7061 44.966C36.347 44.966 35.0062 44.613 33.6076 43.8874C31.9976 43.082 31.8492 42.1 31.8872 41.6279L31.5858 41.4957L30 45.6865L30.3453 45.8608C30.3504 45.855 30.3555 45.8492 30.3606 45.8434C30.5406 45.6408 30.6942 45.5267 30.9253 45.5267C31.1777 45.5267 31.5229 45.6618 32.0979 45.9618C33.9573 46.9438 35.6418 47.4014 37.3988 47.4014C38.4148 47.4014 40.3628 47.2561 41.9932 46.2857C43.5373 45.3662 44.3207 43.9761 44.3207 42.1544C44.32 40.351 43.481 38.9928 41.9566 38.3297Z" fill="white"/>
<path d="M54.4984 44.1692V39.7735H59.8038C60.4548 39.7735 60.6881 40.0386 60.8227 40.5318H61.1358V36.8791H60.8147C60.6435 37.4268 60.4394 37.6149 59.8045 37.6149H54.4991V33.3529H63.3068C63.889 33.3529 64.0785 33.7058 64.1838 34.1111H64.5152V30.1665H64.1882C64.0456 30.7018 63.7091 30.7018 63.1839 30.7018H51.0195V31.0904C51.5425 31.2596 51.7159 31.5385 51.7159 32.1515V45.3727C51.7159 46.0453 51.4994 46.2777 51.0195 46.4491V46.8442H63.3682C64.0288 46.8442 64.2475 47.0105 64.363 47.3795H64.679V43.4349H64.3667C64.2328 43.9324 64.0105 44.1706 63.3478 44.1706H54.4984V44.1692Z" fill="white"/>
<path d="M85.8288 45.1002L80.7085 32.614C80.601 32.3504 80.5513 31.9422 80.7341 31.5849C80.849 31.3604 81.0377 31.1941 81.2857 31.0953V30.7009H76.3928V31.1077C76.7052 31.2464 76.9041 31.4214 77 31.6401C77.1499 31.9807 77.0051 32.3308 76.8888 32.6119L71.7882 44.8329C71.5176 45.4619 71.1657 46.1468 70.3926 46.446V46.8426H75.142V46.4533C74.9357 46.385 74.6783 46.2637 74.5539 46.0052C74.4347 45.7582 74.4588 45.4488 74.6285 45.0595L78.9581 34.7647L83.1568 45.2883C83.2731 45.6042 83.2621 45.8824 83.1275 46.0981C83.0119 46.2841 82.8137 46.4104 82.5372 46.4744V46.8426H87.0818V46.4453C86.5376 46.231 86.1068 45.7698 85.8288 45.1002Z" fill="white"/>
<path d="M96.5433 44.1692V39.7735H101.849C102.499 39.7735 102.733 40.0386 102.867 40.5318H103.18V36.8791H102.859C102.688 37.4268 102.484 37.6149 101.849 37.6149H96.5433V33.3529H105.351C105.932 33.3529 106.123 33.7058 106.227 34.1111H106.559V30.1665H106.232C106.089 30.7018 105.753 30.7018 105.227 30.7018H93.063V31.0904C93.586 31.2596 93.7594 31.5385 93.7594 32.1515V45.3727C93.7594 46.0453 93.5428 46.2777 93.063 46.4491V46.8442H105.412C106.072 46.8442 106.29 47.0105 106.406 47.3795H106.722V43.4349H106.41C106.276 43.9324 106.054 44.1706 105.391 44.1706H96.5433V44.1692Z" fill="white"/>
<path d="M125.238 32.1507V37.5036H116.695V32.1507C116.695 31.5413 116.875 31.2544 117.392 31.0888V30.7017H113.195V31.0866C113.724 31.2478 113.892 31.5202 113.892 32.1507V45.3718C113.892 46.0516 113.722 46.2623 113.195 46.4482V46.8433H117.392V46.4482C116.865 46.2623 116.695 46.0516 116.695 45.3718V39.9077H125.238V45.3718C125.238 46.0713 125.028 46.3037 124.562 46.4548V46.8433H128.738V46.454C128.169 46.2666 128.062 45.987 128.062 45.3718V32.1507C128.062 31.5144 128.218 31.2508 128.738 31.0881V30.7017H124.562V31.0859C125.093 31.2442 125.238 31.4926 125.238 32.1507Z" fill="white"/>
<path d="M151.102 44.7958L146.447 32.6097C146.327 32.3228 146.208 31.9429 146.376 31.603C146.487 31.3764 146.7 31.2094 147.027 31.0939V30.7017H140.209V31.0975C140.528 31.2173 140.738 31.3866 140.847 31.6125C141.01 31.9509 140.89 32.3221 140.785 32.5719L136.118 44.7828C135.846 45.3762 135.487 46.1584 134.72 46.4489V46.8433H139.346V46.4569C139.08 46.3676 138.894 46.2202 138.79 46.0168C138.647 45.7379 138.676 45.3704 138.874 44.9244L139.511 43.0069H147.719L148.408 44.9404C148.59 45.3478 148.613 45.7052 148.468 45.987C148.357 46.2056 148.155 46.3632 147.867 46.4577V46.8441H152.494V46.4497C151.727 46.1577 151.369 45.3762 151.102 44.7958ZM140.215 41.0037L142.975 33.2416H144.237L147.019 41.0037H140.215Z" fill="white"/>
<path d="M173 31.0895V30.7009H164.154C162.765 30.7009 158.236 31.0372 158.236 35.361C158.236 38.4558 160.336 39.6179 162.098 40.0472L162.414 40.1242L159.181 44.8728C158.639 45.6732 158.077 46.1635 157.376 46.4417V46.8426H162.371V46.4613C162.03 46.3494 161.839 46.1054 161.839 45.7727C161.839 45.4539 162.041 45.1125 162.21 44.8823L165.303 40.3537H169.5V45.3943C169.5 46.0676 169.259 46.3073 168.783 46.4562V46.8433H173V46.4548C172.484 46.2848 172.304 45.9986 172.304 45.3943V32.1507C172.305 31.5376 172.478 31.2595 173 31.0895ZM169.501 38.1275H164.892C163.595 38.1275 160.897 38.1275 160.897 35.6065C160.897 33.0164 163.98 33.0164 164.994 33.0164H169.5V38.1275H169.501Z" fill="white"/>
<path d="M99.2932 27.3795C99.2566 27.4209 99.2274 27.4564 99.1952 27.4884C98.7959 27.8857 98.3937 28.2794 97.9989 28.681C97.9126 28.7689 97.8665 28.7689 97.7795 28.6803C97.3853 28.2786 96.9861 27.8813 96.5802 27.4906C96.4815 27.3954 96.4939 27.3446 96.5846 27.2567C96.989 26.8645 97.3868 26.4657 97.7846 26.0677C97.8453 26.0074 97.8841 25.9602 97.9718 26.0496C98.3806 26.4657 98.7974 26.8739 99.2106 27.285C99.2384 27.3112 99.2618 27.3424 99.2932 27.3795Z" fill="white"/>
<path d="M103.986 27.3795C103.949 27.4209 103.92 27.4564 103.888 27.4884C103.489 27.8857 103.086 28.2794 102.691 28.681C102.604 28.7689 102.558 28.7689 102.471 28.6803C102.077 28.2786 101.678 27.8813 101.272 27.4906C101.173 27.3954 101.186 27.3446 101.276 27.2567C101.681 26.8645 102.079 26.4657 102.476 26.0677C102.537 26.0074 102.576 25.9602 102.664 26.0496C103.072 26.4657 103.489 26.8739 103.902 27.285C103.93 27.3112 103.954 27.3424 103.986 27.3795Z" fill="white"/>
</svg>
