<svg width="60" height="60" viewBox="0 0 60 60" fill="none" xmlns="http://www.w3.org/2000/svg">
<path d="M29.9999 42.8687C26.8098 44.4638 18.5161 45.9568 10.0177 39.8036C9.45507 39.3962 9.44363 38.5792 10.0092 38.1759C11.8381 36.8716 15.2041 34.876 19.4756 33.4521M29.9999 42.8687C32.9595 42.2768 37.5435 39.848 39.7514 34.4434C39.9749 33.8962 40.5636 33.5766 41.1236 33.7658C43.2324 34.4781 46.7712 35.9664 49.9464 38.1802C50.5245 38.5832 50.539 39.4223 49.9759 39.8461C41.8669 45.9499 33.3595 44.4601 29.9999 42.8687Z" stroke="white" stroke-linecap="round" stroke-linejoin="round"/>
<path d="M29.9992 42.8694C25.3566 41.9766 16.9497 36.905 19.2066 23.7469C19.3272 23.0434 20.091 22.6697 20.7185 23.0099C22.6962 24.0824 25.1881 25.7249 25.0161 26.8058M29.9992 42.8694C33.134 42.2424 38.0911 39.5546 40.1169 33.4528C40.9635 30.9027 41.298 27.7563 40.7736 23.9147C40.6704 23.1591 39.8342 22.7742 39.1924 23.1862C37.5258 24.256 35.4548 25.7825 35.0644 26.8058M29.9992 42.8694C35.1071 37.7614 35.9776 31.9235 35.0644 26.8058M29.9992 42.8694C27.103 40.6314 23.3809 34.9959 25.0161 26.8058M35.0644 26.8058C34.3594 22.8545 32.5912 19.3325 30.8892 16.9072C30.4647 16.3022 29.5794 16.3374 29.1827 16.9609C26.8988 20.5499 25.6073 23.8448 25.0161 26.8058" stroke="#E2D6A7" stroke-linecap="round" stroke-linejoin="round"/>
</svg>
