<svg width="60" height="60" viewBox="0 0 60 60" fill="none" xmlns="http://www.w3.org/2000/svg">
<path d="M15.8008 18.9563V46.3032C15.8008 46.8841 16.2717 47.355 16.8526 47.355H43.1476C43.7285 47.355 44.1994 46.8841 44.1994 46.3032V18.9563M15.8008 18.9563V13.6973C15.8008 13.1164 16.2717 12.6455 16.8526 12.6455H43.1476C43.7285 12.6455 44.1994 13.1164 44.1994 13.6973V18.9563M15.8008 18.9563H44.1994" stroke="white" stroke-linecap="round" stroke-linejoin="round"/>
<path d="M18.4307 15.8008H22.112M24.2156 15.8008H26.3192" stroke="#E2D6A7" stroke-linecap="round" stroke-linejoin="round"/>
<circle cx="30.0005" cy="33.1558" r="11.0698" stroke="#E2D6A7"/>
<path d="M38.4148 33.1556C38.4148 37.8028 34.6475 41.57 30.0004 41.57C26.2715 41.57 23.1091 39.1445 22.005 35.7851M38.4148 33.1556C38.4148 28.5085 34.6475 24.7412 30.0004 24.7412C25.3532 24.7412 21.5859 28.5085 21.5859 33.1556C21.5859 34.0739 21.733 34.9578 22.005 35.7851M38.4148 33.1556C37.7136 34.558 33.7868 38.3095 30.0004 35.7851C28.5267 34.9086 25.2852 34.1022 22.005 35.7851" stroke="#E2D6A7"/>
<path d="M24.7412 31.5778C24.9165 30.7013 25.8982 28.7379 28.4225 27.8965" stroke="#E2D6A7" stroke-linecap="round" stroke-linejoin="round"/>
</svg>
