<svg width="60" height="60" viewBox="0 0 60 60" fill="none" xmlns="http://www.w3.org/2000/svg">
<path d="M36.5415 22.2692V18.1063M39.515 15.7275V22.2692M42.4885 18.1063V22.2692" stroke="#E2D6A7" stroke-linecap="round" stroke-linejoin="round"/>
<path d="M13.3485 39.5152H10.9697V39.5152C10.9697 42.1428 13.0998 44.2728 15.7273 44.2728H44.2729C46.9004 44.2728 49.0304 42.1428 49.0304 39.5152V39.5152H46.6516M13.3485 39.5152H46.6516M13.3485 39.5152C13.5361 34.8265 16.5627 24.1049 27.9682 22.9627M46.6516 39.5152C46.4641 34.8265 43.4375 24.1049 32.032 22.9627M27.9682 22.9627C28.6179 22.8977 29.2949 22.8637 30.0001 22.8637C30.7053 22.8637 31.3822 22.8977 32.032 22.9627M27.9682 22.9627C28.0508 22.335 28.5728 21.0796 30.0001 21.0796C31.4274 21.0796 31.9494 22.335 32.032 22.9627" stroke="white" stroke-linecap="round" stroke-linejoin="round"/>
<path d="M16.8374 36.7343C17.0356 34.752 18.2248 29.8809 23.4581 27.0264" stroke="#E2D6A7" stroke-linecap="round" stroke-linejoin="round"/>
</svg>
