<svg width="60" height="60" viewBox="0 0 60 60" fill="none" xmlns="http://www.w3.org/2000/svg">
<path d="M14.9583 25.4589L17.562 18.0818C18.0425 16.7201 19.3295 15.8096 20.7735 15.8096H39.794C41.2379 15.8096 42.5249 16.7201 43.0055 18.0818L45.6092 25.4589M14.9583 25.4589H45.6092M14.9583 25.4589H12.404M45.6092 25.4589H48.1634M12.6878 40.7844H10.0015C9.9177 40.7844 9.84977 40.7165 9.84977 40.6327V28.0132C9.84977 26.6025 10.9933 25.4589 12.404 25.4589V25.4589M12.6878 40.7844V43.0548C12.6878 43.6818 13.1961 44.1901 13.823 44.1901H17.2287C17.8557 44.1901 18.3639 43.6818 18.3639 43.0548V40.7844M12.6878 40.7844H18.3639M18.3639 40.7844H42.2035M42.2035 40.7844V43.0548C42.2035 43.6818 42.7118 44.1901 43.3388 44.1901H46.7444C47.3714 44.1901 47.8796 43.6818 47.8796 43.0548V40.7844M42.2035 40.7844H47.8796M47.8796 40.7844H50.5659C50.6497 40.7844 50.7177 40.7165 50.7177 40.6327V28.0132C50.7177 26.6025 49.5741 25.4589 48.1634 25.4589V25.4589M12.404 25.4589V23.7561C12.404 23.1291 11.8958 22.6209 11.2688 22.6209H8.14694C7.51998 22.6209 7.01172 23.1291 7.01172 23.7561V24.3237C7.01172 24.9507 7.51997 25.4589 8.14694 25.4589H12.404ZM48.1634 25.4589V23.7561C48.1634 23.1291 48.6717 22.6209 49.2987 22.6209H51.8529C52.4799 22.6209 52.9881 23.1291 52.9881 23.7561V24.3237C52.9881 24.9507 52.4799 25.4589 51.8529 25.4589H48.1634Z" stroke="white" stroke-linecap="round" stroke-linejoin="round"/>
<path d="M18.3633 37.9468H42.2029M38.7558 33.3439L37.999 32.2086C37.7885 31.8928 37.434 31.7031 37.0545 31.7031H24.0793C23.6998 31.7031 23.3453 31.8928 23.1348 32.2086L22.3779 33.3439C21.875 34.0983 22.4158 35.1088 23.3225 35.1088H37.8113C38.718 35.1088 39.2588 34.0983 38.7558 33.3439Z" stroke="#E2D6A7" stroke-linecap="round" stroke-linejoin="round"/>
<circle cx="16.0939" cy="31.7023" r="2.33805" stroke="#E2D6A7"/>
<circle cx="44.4738" cy="31.7023" r="2.33805" stroke="#E2D6A7"/>
</svg>
