<svg width="21" height="20" viewBox="0 0 21 20" fill="none" xmlns="http://www.w3.org/2000/svg">
<path d="M13.0344 11.8614C13.7869 10.9505 14.2621 9.78221 14.2621 8.49508C14.2621 5.60399 11.9057 3.24756 9.01461 3.24756C6.12353 3.24756 3.76709 5.60399 3.76709 8.49508C3.76709 11.3862 6.12353 13.7426 9.01461 13.7426C10.2819 13.7426 11.4701 13.2872 12.381 12.5149L16.4602 16.5941C16.5592 16.6931 16.678 16.7327 16.7968 16.7327C16.9156 16.7327 17.0344 16.6931 17.1334 16.5941C17.3116 16.4159 17.3116 16.099 17.1334 15.9208L13.0344 11.8614ZM8.99481 12.7921C6.61858 12.7921 4.69778 10.8713 4.69778 8.49508C4.69778 6.11885 6.61858 4.19805 8.99481 4.19805C11.3711 4.19805 13.2918 6.11885 13.2918 8.49508C13.2918 10.8713 11.3711 12.7921 8.99481 12.7921Z" fill="white"/>
</svg>
