<svg width="21" height="21" viewBox="0 0 21 21" fill="none" xmlns="http://www.w3.org/2000/svg">
<g clip-path="url(#clip0_401_1414)">
<path d="M8.06404 1.1888C7.41737 1.84481 6.42872 3.50728 7.64752 4.90914M11.1647 1.1888C10.3984 1.61114 9.19825 2.81167 10.5277 4.23513M13.9898 1C13.1774 1.63806 11.9513 3.31317 13.5466 4.90914M20 11.2447H18.6986M19.5018 12.6196C19.1032 13.8921 17.2677 15.7199 16.3997 16.4748H4.68399C3.00002 15.7631 1.52634 12.6915 1 11.2447H2.19128M18.6986 11.2447C18.9476 9.20474 18.266 5.52927 13.5466 7.14684M18.6986 11.2447H7.64752M7.64752 11.2447H2.19128M7.64752 11.2447C7.15815 10.3191 6.74182 8.77332 7.37424 7.5395M13.7962 9.70798C13.8627 6.40815 11.4789 5.709 10.2787 5.77191C8.66633 6.04637 7.79175 6.72496 7.37424 7.5395M2.19128 11.2447C1.78506 9.9596 1.71489 7.24389 4.68399 6.66157C5.39731 6.56388 6.93402 6.60271 7.37424 7.5395M2.97421 18.2408H4.47642M17.6911 18.2408H4.47642M4.47642 18.2408L5.76738 20H15.4613" stroke="#333333" stroke-linecap="round"/>
</g>
<defs>
<clipPath id="clip0_401_1414">
<rect width="21" height="21" fill="white"/>
</clipPath>
</defs>
</svg>
