<svg width="562" height="7" viewBox="0 0 562 7" fill="none" xmlns="http://www.w3.org/2000/svg">
<path d="M1 1L10.5059 5.41345C11.3071 5.78542 12.2314 5.78542 13.0326 5.41345L21.2751 1.58655C22.0763 1.21458 23.0006 1.21458 23.8018 1.58655L32.0444 5.41345C32.8455 5.78542 33.7699 5.78542 34.571 5.41345L42.8136 1.58655C43.6147 1.21458 44.5391 1.21458 45.3403 1.58655L53.5828 5.41345C54.384 5.78542 55.3083 5.78542 56.1095 5.41345L64.3521 1.58655C65.1532 1.21458 66.0776 1.21458 66.8787 1.58655L75.1213 5.41345C75.9224 5.78542 76.8468 5.78542 77.6479 5.41345L85.8905 1.58655C86.6917 1.21458 87.616 1.21458 88.4172 1.58655L96.6597 5.41345C97.4609 5.78542 98.3853 5.78542 99.1864 5.41345L107.429 1.58655C108.23 1.21458 109.154 1.21458 109.956 1.58655L118.198 5.41345C118.999 5.78542 119.924 5.78542 120.725 5.41345L128.967 1.58655C129.769 1.21458 130.693 1.21458 131.494 1.58655L139.737 5.41345C140.538 5.78542 141.462 5.78542 142.263 5.41345L150.506 1.58655C151.307 1.21458 152.231 1.21458 153.033 1.58655L161.275 5.41345C162.076 5.78542 163.001 5.78542 163.802 5.41345L172.044 1.58655C172.846 1.21458 173.77 1.21458 174.571 1.58655L182.814 5.41345C183.615 5.78542 184.539 5.78542 185.34 5.41345L193.583 1.58655C194.384 1.21458 195.308 1.21458 196.109 1.58655L204.352 5.41345C205.153 5.78542 206.078 5.78542 206.879 5.41345L215.121 1.58655C215.922 1.21458 216.847 1.21458 217.648 1.58655L225.891 5.41345C226.692 5.78542 227.616 5.78542 228.417 5.41345L236.66 1.58655C237.461 1.21458 238.385 1.21458 239.186 1.58655L247.429 5.41345C248.23 5.78542 249.154 5.78542 249.956 5.41345L258.198 1.58655C258.999 1.21458 259.924 1.21458 260.725 1.58655L268.967 5.41345C269.769 5.78542 270.693 5.78542 271.494 5.41345L279.737 1.58655C280.538 1.21458 281.462 1.21458 282.263 1.58655L290.506 5.41345C291.307 5.78542 292.231 5.78542 293.033 5.41345L301.275 1.58655C302.076 1.21458 303.001 1.21458 303.802 1.58655L312.044 5.41345C312.846 5.78542 313.77 5.78542 314.571 5.41345L322.814 1.58655C323.615 1.21458 324.539 1.21458 325.34 1.58655L333.583 5.41345C334.384 5.78542 335.308 5.78542 336.109 5.41345L344.352 1.58655C345.153 1.21458 346.078 1.21458 346.879 1.58655L355.121 5.41345C355.922 5.78542 356.847 5.78542 357.648 5.41345L365.891 1.58655C366.692 1.21458 367.616 1.21458 368.417 1.58655L376.66 5.41345C377.461 5.78542 378.385 5.78542 379.186 5.41345L387.429 1.58655C388.23 1.21458 389.154 1.21458 389.956 1.58655L398.198 5.41345C398.999 5.78542 399.924 5.78542 400.725 5.41345L408.967 1.58655C409.769 1.21458 410.693 1.21458 411.494 1.58655L419.737 5.41345C420.538 5.78542 421.462 5.78542 422.263 5.41345L430.506 1.58655C431.307 1.21458 432.231 1.21458 433.033 1.58655L441.275 5.41345C442.076 5.78542 443.001 5.78542 443.802 5.41345L452.044 1.58655C452.846 1.21458 453.77 1.21458 454.571 1.58655L462.814 5.41345C463.615 5.78542 464.539 5.78542 465.34 5.41345L473.583 1.58655C474.384 1.21458 475.308 1.21458 476.109 1.58655L484.352 5.41345C485.153 5.78542 486.078 5.78542 486.879 5.41345L495.121 1.58655C495.922 1.21458 496.847 1.21458 497.648 1.58655L505.891 5.41345C506.692 5.78542 507.616 5.78542 508.417 5.41345L516.66 1.58655C517.461 1.21458 518.385 1.21459 519.186 1.58655L527.429 5.41345C528.23 5.78541 529.154 5.78542 529.956 5.41345L538.198 1.58655C538.999 1.21458 539.924 1.21458 540.725 1.58654L548.967 5.41346C549.769 5.78542 550.693 5.78542 551.494 5.41345L561 1" stroke="#C6C6C6"/>
</svg>
