<svg width="18" height="18" viewBox="0 0 18 18" fill="none" xmlns="http://www.w3.org/2000/svg">
<circle cx="9" cy="9" r="7.5" stroke="#666666"/>
<path d="M9.34295 11.0027H8.38402C8.33962 10.8399 8.31743 10.6735 8.31743 10.5034C8.31743 10.1777 8.40844 9.88286 8.59046 9.61872C8.77248 9.35459 8.99445 9.13568 9.25638 8.96201C9.52275 8.78833 9.78468 8.61827 10.0422 8.45183C10.3041 8.28539 10.5239 8.09 10.7014 7.86567C10.8835 7.63772 10.9745 7.38625 10.9745 7.11126C10.9745 6.7422 10.7947 6.42741 10.4351 6.16689C10.0799 5.90638 9.60044 5.77612 8.99667 5.77612C8.66815 5.77612 8.3707 5.81954 8.10433 5.90638C7.83796 5.9896 7.63152 6.09091 7.48502 6.21031C7.33851 6.32972 7.21643 6.44912 7.11876 6.56852C7.02553 6.68431 6.96115 6.78381 6.92564 6.86703L6.88568 7.00271L6 6.78019C6.01776 6.72953 6.04218 6.66441 6.07325 6.5848C6.10433 6.5052 6.19534 6.36409 6.34628 6.16147C6.49723 5.95884 6.67481 5.77974 6.87902 5.62415C7.08324 5.46857 7.37403 5.32564 7.75139 5.19539C8.12875 5.06513 8.54384 5 8.99667 5C9.86238 5 10.5794 5.20986 11.1476 5.62958C11.7159 6.04568 12 6.53957 12 7.11126C12 7.43691 11.9334 7.72818 11.8002 7.98507C11.6715 8.23835 11.5094 8.43917 11.3141 8.58752C11.1188 8.73587 10.9034 8.88783 10.6681 9.04342C10.4373 9.19901 10.2242 9.34374 10.0289 9.47761C9.83352 9.61149 9.66926 9.7924 9.53607 10.0204C9.40733 10.2447 9.34295 10.498 9.34295 10.7802V11.0027ZM8.3707 12.848C8.24639 12.7431 8.18424 12.6092 8.18424 12.4464C8.18424 12.2836 8.24639 12.1515 8.3707 12.0502C8.49945 11.9453 8.66371 11.8928 8.86349 11.8928C9.06326 11.8928 9.22531 11.9453 9.34961 12.0502C9.47836 12.1515 9.54273 12.2836 9.54273 12.4464C9.54273 12.6092 9.47836 12.7431 9.34961 12.848C9.22531 12.9493 9.06326 13 8.86349 13C8.66371 13 8.49945 12.9493 8.3707 12.848Z" fill="#666666"/>
</svg>
