<svg width="54" height="54" viewBox="0 0 54 54" fill="none" xmlns="http://www.w3.org/2000/svg">
<path d="M23.326 42.3914C23.326 43.9457 22.066 45.2057 20.5116 45.2057C18.9573 45.2057 17.6973 43.9457 17.6973 42.3914" stroke="#739276" stroke-width="1.09448"/>
<path d="M43.9647 42.3914C43.9647 43.9457 42.7047 45.2057 41.1503 45.2057C39.596 45.2057 38.3359 43.9457 38.3359 42.3914" stroke="#739276" stroke-width="1.09448"/>
<path d="M10.8998 20.189H12.5577M15.1151 20.189H27.0786M8.26651 24.5576H12.3627M14.725 24.5576H18.767M5.63325 28.3132H6.99865M9.16593 28.3132H16.3288M3 32.1651H8.46156M10.9214 32.1651H14.1789M8.09312 35.8244H13.4572" stroke="#739276" stroke-width="1.09448" stroke-linecap="round"/>
<path d="M13.6218 37.3879H11.1299V37.3879C11.1299 40.1512 13.37 42.3913 16.1332 42.3913H46.0198C48.7704 42.3913 51.0002 40.1615 51.0002 37.4108V37.4108C51.0002 37.3982 50.99 37.3879 50.9773 37.3879H48.5083M13.6218 37.3879H48.5083M13.6218 37.3879C13.8182 32.457 16.9887 21.1816 28.9365 19.9804M48.5083 37.3879C48.3119 32.457 45.1414 21.1816 33.1936 19.9804M28.9365 19.9804C29.6172 19.912 30.3263 19.8763 31.0651 19.8763C31.8038 19.8763 32.5129 19.912 33.1936 19.9804M28.9365 19.9804C29.0231 19.3203 29.5699 18 31.0651 18C32.5602 18 33.107 19.3203 33.1936 19.9804" stroke="#333333" stroke-width="1.09448" stroke-linecap="round" stroke-linejoin="round"/>
<path d="M17.2285 34.4173C17.4378 32.3025 18.7382 27.1432 24.2645 24.0979" stroke="#739276" stroke-width="1.09448" stroke-linecap="round" stroke-linejoin="round"/>
</svg>
