<svg width="54" height="54" viewBox="0 0 54 54" fill="none" xmlns="http://www.w3.org/2000/svg">
<path d="M5.07227 36.3969V34.4186C5.07227 30.9586 7.8771 28.1538 11.337 28.1538V28.1538C14.797 28.1538 17.6018 30.9586 17.6018 34.4186V36.3969" stroke="#739276" stroke-linecap="round" stroke-linejoin="round"/>
<path d="M36.3975 36.3969V34.4186C36.3975 30.9586 39.2023 28.1538 42.6622 28.1538V28.1538C46.1222 28.1538 48.927 30.9586 48.927 34.4186V36.3969" stroke="#739276" stroke-linecap="round" stroke-linejoin="round"/>
<path d="M32.7705 21.5595V18.5919C32.7705 15.132 35.5753 12.3271 39.0353 12.3271V12.3271C42.4952 12.3271 45.3001 15.132 45.3001 18.5919V21.5595" stroke="#739276" stroke-linecap="round" stroke-linejoin="round"/>
<path d="M9.0293 21.5595V18.5919C9.0293 15.132 11.8341 12.3271 15.2941 12.3271V12.3271C18.754 12.3271 21.5589 15.132 21.5589 18.5919V21.5595" stroke="#739276" stroke-linecap="round" stroke-linejoin="round"/>
<circle cx="11.3385" cy="24.1977" r="3.4567" stroke="#739276"/>
<circle cx="42.6598" cy="24.1977" r="3.4567" stroke="#739276"/>
<circle cx="39.0329" cy="8.37077" r="3.4567" stroke="#739276"/>
<circle cx="15.2946" cy="8.37077" r="3.4567" stroke="#739276"/>
<path d="M17.3409 36.1738L21.0133 15.8957C21.0417 15.7388 21.1783 15.6248 21.3377 15.6248H33.3056C33.4699 15.6248 33.609 15.7456 33.6321 15.9082L36.5062 36.1863C36.5343 36.3848 36.3802 36.5623 36.1797 36.5623H30.7892H17.6653C17.4597 36.5623 17.3042 36.3762 17.3409 36.1738Z" fill="#E3E3E3" stroke="#333333" stroke-linecap="round" stroke-linejoin="round"/>
<path d="M20.2393 49.5861V45.9591C20.2393 42.135 23.3393 39.0349 27.1635 39.0349V39.0349C30.9876 39.0349 34.0877 42.135 34.0877 45.9591V49.5861" stroke="#739276" stroke-linecap="round" stroke-linejoin="round"/>
<circle cx="27.164" cy="34.4186" r="4.11616" fill="#E3E3E3" stroke="#739276"/>
</svg>
