<svg width="54" height="54" viewBox="0 0 54 54" fill="none" xmlns="http://www.w3.org/2000/svg">
<path d="M34.9199 18.26V13.78M37.9999 11.22V18.26M41.0799 13.78V18.26" stroke="#739276" stroke-linecap="round" stroke-linejoin="round"/>
<path d="M7.75 38.3645H5V38.3645C5 41.3553 7.42455 43.7799 10.4154 43.7799H43.6094C46.5866 43.7799 49 41.3664 49 38.3893V38.3893C49 38.3756 48.9889 38.3645 48.9752 38.3645H46.25M7.75 38.3645H46.25M7.75 38.3645C7.96681 33.0275 11.4657 20.8235 24.651 19.5234M46.25 38.3645C46.0332 33.0275 42.5343 20.8235 29.349 19.5234M24.651 19.5234C25.4022 19.4493 26.1848 19.4107 27 19.4107C27.8152 19.4107 28.5978 19.4493 29.349 19.5234M24.651 19.5234C24.7465 18.8089 25.35 17.3799 27 17.3799C28.65 17.3799 29.2535 18.8089 29.349 19.5234" stroke="#333333" stroke-linecap="round" stroke-linejoin="round"/>
<path d="M12.04 34.98C12.2495 32.6356 13.4706 27.876 19 24.5" stroke="#739276" stroke-linecap="round" stroke-linejoin="round"/>
</svg>
