<svg width="54" height="54" viewBox="0 0 54 54" fill="none" xmlns="http://www.w3.org/2000/svg">
<path d="M29 40L32.9286 30.8831M32.9286 30.8831H32.5C31.9477 30.8831 31.5 30.4354 31.5 29.8831V29.7792C31.5 29.2269 31.9477 28.7792 32.5 28.7792H42.9263C43.3547 28.7792 43.7355 28.5064 43.8732 28.1007L49 13L45.4286 30.8831M32.9286 30.8831H45.4286M45.4286 30.8831L47.9286 39.6494" stroke="#333333" stroke-linecap="round" stroke-linejoin="round"/>
<path d="M24 40L20.0714 30.8831M20.0714 30.8831H20.5C21.0523 30.8831 21.5 30.4354 21.5 29.8831V29.7792C21.5 29.2269 21.0523 28.7792 20.5 28.7792H10.0737C9.64531 28.7792 9.2645 28.5064 9.12678 28.1007L4 13L7.57143 30.8831M20.0714 30.8831H7.57143M7.57143 30.8831L5.07143 39.6494" stroke="#333333" stroke-linecap="round" stroke-linejoin="round"/>
<path d="M16.9538 39V22.8M16.9538 22.8H35.4154M16.9538 22.8H14.9C14.4029 22.8 14 22.3971 14 21.9V21.9C14 21.4029 14.4029 21 14.9 21H37.1C37.5971 21 38 21.4029 38 21.9V21.9C38 22.3971 37.5971 22.8 37.1 22.8H35.4154M35.4154 22.8V39" stroke="#739276" stroke-linecap="round" stroke-linejoin="round"/>
</svg>
