<svg width="30" height="30" viewBox="0 0 30 30" fill="none" xmlns="http://www.w3.org/2000/svg">
<path d="M14.3523 10.1589V13.4095C14.3523 14.2358 13.5891 14.8509 12.7816 14.6754L7.92367 13.6193C7.32816 13.4899 6.90341 12.9629 6.90341 12.3534V10.1589M14.3523 10.1589H27.9545M14.3523 10.1589V7.89185M6.90341 10.1589H2.04545M6.90341 10.1589V7.89185M2.04545 10.1589H1.88352C1.2575 10.1589 0.75 9.6514 0.75 9.02537V9.02537C0.75 8.39934 1.2575 7.89185 1.88352 7.89185H6.90341M2.04545 10.1589V14.0453C2.04545 17.086 4.51043 19.5509 7.55114 19.5509V19.5509M27.9545 10.1589H28.1165C28.7425 10.1589 29.25 9.6514 29.25 9.02537V9.02537C29.25 8.39934 28.7425 7.89185 28.1165 7.89185H14.3523M27.9545 10.1589V14.0453C27.9545 17.086 25.4896 19.5509 22.4489 19.5509V19.5509M7.55114 19.5509V21.9624C7.55114 22.4193 7.92146 22.7896 8.37827 22.7896V22.7896C8.66882 22.7896 8.93805 22.6371 9.08754 22.388L10.7898 19.5509M7.55114 19.5509H10.7898M10.7898 19.5509H19.5341M19.5341 19.5509L20.9321 22.347C21.0677 22.6182 21.345 22.7896 21.6482 22.7896V22.7896C22.0904 22.7896 22.4489 22.4311 22.4489 21.9889V19.5509M19.5341 19.5509H22.4489M6.90341 7.89185H14.3523" stroke="#739276"/>
</svg>
