<svg width="1102" height="7" viewBox="0 0 1102 7" fill="none" xmlns="http://www.w3.org/2000/svg">
<path d="M1 1L11.2585 5.47644C12.0236 5.81028 12.8931 5.81028 13.6582 5.47644L22.7168 1.52356C23.4819 1.18972 24.3514 1.18972 25.1165 1.52356L34.1752 5.47644C34.9402 5.81028 35.8098 5.81028 36.5748 5.47644L45.6335 1.52356C46.3986 1.18972 47.2681 1.18972 48.0332 1.52356L57.0918 5.47644C57.8569 5.81028 58.7264 5.81028 59.4915 5.47644L68.5502 1.52356C69.3152 1.18972 70.1848 1.18972 70.9498 1.52356L80.0085 5.47644C80.7736 5.81028 81.6431 5.81028 82.4082 5.47644L91.4668 1.52356C92.2319 1.18972 93.1014 1.18972 93.8665 1.52356L102.925 5.47644C103.69 5.81028 104.56 5.81028 105.325 5.47644L114.383 1.52356C115.149 1.18972 116.018 1.18972 116.783 1.52356L125.842 5.47644C126.607 5.81028 127.476 5.81028 128.241 5.47644L137.3 1.52356C138.065 1.18972 138.935 1.18972 139.7 1.52356L148.758 5.47644C149.524 5.81028 150.393 5.81028 151.158 5.47644L160.217 1.52356C160.982 1.18972 161.851 1.18972 162.616 1.52356L171.675 5.47644C172.44 5.81028 173.31 5.81028 174.075 5.47644L183.133 1.52356C183.899 1.18972 184.768 1.18972 185.533 1.52356L194.592 5.47644C195.357 5.81028 196.226 5.81028 196.991 5.47644L206.05 1.52356C206.815 1.18972 207.685 1.18972 208.45 1.52356L217.508 5.47644C218.274 5.81028 219.143 5.81028 219.908 5.47644L228.967 1.52356C229.732 1.18972 230.601 1.18972 231.366 1.52356L240.425 5.47644C241.19 5.81028 242.06 5.81028 242.825 5.47644L251.883 1.52356C252.649 1.18972 253.518 1.18972 254.283 1.52356L263.342 5.47644C264.107 5.81028 264.976 5.81028 265.741 5.47644L274.8 1.52356C275.565 1.18972 276.435 1.18972 277.2 1.52356L286.258 5.47644C287.024 5.81028 287.893 5.81028 288.658 5.47644L297.717 1.52356C298.482 1.18972 299.351 1.18972 300.116 1.52356L309.175 5.47644C309.94 5.81028 310.81 5.81028 311.575 5.47644L320.633 1.52356C321.399 1.18972 322.268 1.18972 323.033 1.52356L332.092 5.47644C332.857 5.81028 333.726 5.81028 334.491 5.47644L343.55 1.52356C344.315 1.18972 345.185 1.18972 345.95 1.52356L355.008 5.47644C355.774 5.81028 356.643 5.81028 357.408 5.47644L366.467 1.52356C367.232 1.18972 368.101 1.18972 368.866 1.52356L377.925 5.47644C378.69 5.81028 379.56 5.81028 380.325 5.47644L389.383 1.52356C390.149 1.18972 391.018 1.18972 391.783 1.52356L400.842 5.47644C401.607 5.81028 402.476 5.81028 403.241 5.47644L412.3 1.52356C413.065 1.18972 413.935 1.18972 414.7 1.52356L423.758 5.47644C424.524 5.81028 425.393 5.81028 426.158 5.47644L435.217 1.52356C435.982 1.18972 436.851 1.18972 437.616 1.52356L446.675 5.47644C447.44 5.81028 448.31 5.81028 449.075 5.47644L458.133 1.52356C458.899 1.18972 459.768 1.18972 460.533 1.52356L469.592 5.47644C470.357 5.81028 471.226 5.81028 471.991 5.47644L481.05 1.52356C481.815 1.18972 482.685 1.18972 483.45 1.52356L492.508 5.47644C493.274 5.81028 494.143 5.81028 494.908 5.47644L503.967 1.52356C504.732 1.18972 505.601 1.18972 506.366 1.52356L515.425 5.47644C516.19 5.81028 517.06 5.81028 517.825 5.47644L526.883 1.52356C527.649 1.18972 528.518 1.18972 529.283 1.52356L538.342 5.47644C539.107 5.81028 539.976 5.81028 540.741 5.47644L549.8 1.52356C550.565 1.18972 551.435 1.18972 552.2 1.52356L561.258 5.47644C562.024 5.81028 562.893 5.81028 563.658 5.47644L572.717 1.52356C573.482 1.18972 574.351 1.18972 575.116 1.52356L584.175 5.47644C584.94 5.81028 585.81 5.81028 586.575 5.47644L595.633 1.52356C596.399 1.18972 597.268 1.18972 598.033 1.52356L607.092 5.47644C607.857 5.81028 608.726 5.81028 609.491 5.47644L618.55 1.52356C619.315 1.18972 620.185 1.18972 620.95 1.52356L630.008 5.47644C630.774 5.81028 631.643 5.81028 632.408 5.47644L641.467 1.52356C642.232 1.18972 643.101 1.18972 643.866 1.52356L652.925 5.47644C653.69 5.81028 654.56 5.81028 655.325 5.47644L664.383 1.52356C665.149 1.18972 666.018 1.18972 666.783 1.52356L675.842 5.47644C676.607 5.81028 677.476 5.81028 678.241 5.47644L687.3 1.52356C688.065 1.18972 688.935 1.18972 689.7 1.52356L698.758 5.47644C699.524 5.81028 700.393 5.81028 701.158 5.47644L710.217 1.52356C710.982 1.18972 711.851 1.18972 712.616 1.52356L721.675 5.47644C722.44 5.81028 723.31 5.81028 724.075 5.47644L733.133 1.52356C733.899 1.18972 734.768 1.18972 735.533 1.52356L744.592 5.47644C745.357 5.81028 746.226 5.81028 746.991 5.47644L756.05 1.52356C756.815 1.18972 757.685 1.18972 758.45 1.52356L767.508 5.47644C768.274 5.81028 769.143 5.81028 769.908 5.47644L778.967 1.52356C779.732 1.18972 780.601 1.18972 781.366 1.52356L790.425 5.47644C791.19 5.81028 792.06 5.81028 792.825 5.47644L801.883 1.52356C802.649 1.18972 803.518 1.18972 804.283 1.52356L813.342 5.47644C814.107 5.81028 814.976 5.81028 815.741 5.47644L824.8 1.52356C825.565 1.18972 826.435 1.18972 827.2 1.52356L836.258 5.47644C837.024 5.81028 837.893 5.81028 838.658 5.47644L847.717 1.52356C848.482 1.18972 849.351 1.18972 850.116 1.52356L859.175 5.47644C859.94 5.81028 860.81 5.81028 861.575 5.47644L870.633 1.52356C871.399 1.18972 872.268 1.18972 873.033 1.52356L882.092 5.47644C882.857 5.81028 883.726 5.81028 884.491 5.47644L893.55 1.52356C894.315 1.18972 895.185 1.18972 895.95 1.52356L905.008 5.47644C905.774 5.81028 906.643 5.81028 907.408 5.47644L916.467 1.52356C917.232 1.18972 918.101 1.18972 918.866 1.52356L927.925 5.47644C928.69 5.81028 929.56 5.81028 930.325 5.47644L939.383 1.52356C940.149 1.18972 941.018 1.18972 941.783 1.52356L950.842 5.47644C951.607 5.81028 952.476 5.81028 953.241 5.47644L962.3 1.52356C963.065 1.18972 963.935 1.18972 964.7 1.52356L973.758 5.47644C974.524 5.81028 975.393 5.81028 976.158 5.47644L985.217 1.52356C985.982 1.18972 986.851 1.18972 987.616 1.52356L996.675 5.47644C997.44 5.81028 998.31 5.81028 999.075 5.47644L1008.13 1.52356C1008.9 1.18972 1009.77 1.18972 1010.53 1.52356L1019.59 5.47644C1020.36 5.81028 1021.23 5.81028 1021.99 5.47644L1031.05 1.52356C1031.82 1.18972 1032.68 1.18972 1033.45 1.52356L1042.51 5.47644C1043.27 5.81028 1044.14 5.81028 1044.91 5.47644L1053.97 1.52356C1054.73 1.18972 1055.6 1.18972 1056.37 1.52356L1065.43 5.47644C1066.19 5.81028 1067.06 5.81028 1067.82 5.47644L1076.88 1.52356C1077.65 1.18972 1078.52 1.18972 1079.28 1.52356L1088.34 5.47644C1089.11 5.81028 1089.98 5.81028 1090.74 5.47644L1101 1" stroke="#D9D9D9"/>
</svg>
