<svg width="952" height="7" viewBox="0 0 952 7" fill="none" xmlns="http://www.w3.org/2000/svg">
<path d="M1 1L9.54293 5.31643C10.3937 5.74627 11.398 5.74627 12.2487 5.31643L19.4388 1.68357C20.2895 1.25373 21.2938 1.25373 22.1446 1.68357L29.3346 5.31643C30.1853 5.74627 31.1897 5.74627 32.0404 5.31643L39.2304 1.68357C40.0812 1.25373 41.0855 1.25373 41.9362 1.68357L49.1263 5.31643C49.977 5.74627 50.9813 5.74627 51.8321 5.31643L59.0221 1.68357C59.8728 1.25373 60.8772 1.25373 61.7279 1.68357L68.9179 5.31643C69.7687 5.74627 70.773 5.74627 71.6237 5.31643L78.8138 1.68357C79.6645 1.25373 80.6688 1.25373 81.5196 1.68357L88.7096 5.31643C89.5603 5.74627 90.5647 5.74627 91.4154 5.31643L98.6054 1.68357C99.4562 1.25373 100.461 1.25373 101.311 1.68357L108.501 5.31643C109.352 5.74627 110.356 5.74627 111.207 5.31643L118.397 1.68357C119.248 1.25373 120.252 1.25373 121.103 1.68357L128.293 5.31643C129.144 5.74627 130.148 5.74627 130.999 5.31643L138.189 1.68357C139.039 1.25373 140.044 1.25373 140.895 1.68357L148.085 5.31643C148.935 5.74627 149.94 5.74627 150.79 5.31643L157.98 1.68357C158.831 1.25373 159.836 1.25373 160.686 1.68357L167.876 5.31643C168.727 5.74627 169.731 5.74627 170.582 5.31643L177.772 1.68357C178.623 1.25373 179.627 1.25373 180.478 1.68357L187.668 5.31643C188.519 5.74627 189.523 5.74627 190.374 5.31643L197.564 1.68357C198.414 1.25373 199.419 1.25373 200.27 1.68357L207.46 5.31643C208.31 5.74627 209.315 5.74627 210.165 5.31643L217.355 1.68357C218.206 1.25373 219.211 1.25373 220.061 1.68357L227.251 5.31643C228.102 5.74627 229.106 5.74627 229.957 5.31643L237.147 1.68357C237.998 1.25373 239.002 1.25373 239.853 1.68357L247.043 5.31643C247.894 5.74627 248.898 5.74627 249.749 5.31643L256.939 1.68357C257.789 1.25373 258.794 1.25373 259.645 1.68357L266.835 5.31643C267.685 5.74627 268.69 5.74627 269.54 5.31643L276.73 1.68357C277.581 1.25373 278.586 1.25373 279.436 1.68357L286.626 5.31643C287.477 5.74627 288.481 5.74627 289.332 5.31643L296.522 1.68357C297.373 1.25373 298.377 1.25373 299.228 1.68357L306.418 5.31643C307.269 5.74627 308.273 5.74627 309.124 5.31643L316.314 1.68357C317.164 1.25373 318.169 1.25373 319.02 1.68357L326.21 5.31643C327.06 5.74627 328.065 5.74627 328.915 5.31643L336.105 1.68357C336.956 1.25373 337.961 1.25373 338.811 1.68357L346.001 5.31643C346.852 5.74627 347.856 5.74627 348.707 5.31643L355.897 1.68357C356.748 1.25373 357.752 1.25373 358.603 1.68357L365.793 5.31643C366.644 5.74627 367.648 5.74627 368.499 5.31643L375.689 1.68357C376.539 1.25373 377.544 1.25373 378.395 1.68357L385.585 5.31643C386.435 5.74627 387.44 5.74627 388.29 5.31643L395.48 1.68357C396.331 1.25373 397.336 1.25373 398.186 1.68357L405.376 5.31643C406.227 5.74627 407.231 5.74627 408.082 5.31643L415.272 1.68357C416.123 1.25373 417.127 1.25373 417.978 1.68357L425.168 5.31643C426.019 5.74627 427.023 5.74627 427.874 5.31643L435.064 1.68357C435.914 1.25373 436.919 1.25373 437.77 1.68357L444.96 5.31643C445.81 5.74627 446.815 5.74627 447.665 5.31643L454.855 1.68357C455.706 1.25373 456.711 1.25373 457.561 1.68357L464.751 5.31643C465.602 5.74627 466.606 5.74627 467.457 5.31643L474.647 1.68357C475.498 1.25373 476.502 1.25373 477.353 1.68357L484.543 5.31643C485.394 5.74627 486.398 5.74627 487.249 5.31643L494.439 1.68357C495.289 1.25373 496.294 1.25373 497.145 1.68357L504.335 5.31643C505.185 5.74627 506.19 5.74627 507.04 5.31643L514.23 1.68357C515.081 1.25373 516.086 1.25373 516.936 1.68357L524.126 5.31643C524.977 5.74627 525.981 5.74627 526.832 5.31643L534.022 1.68357C534.873 1.25373 535.877 1.25373 536.728 1.68357L543.918 5.31643C544.769 5.74627 545.773 5.74627 546.624 5.31643L553.814 1.68357C554.664 1.25373 555.669 1.25373 556.52 1.68357L563.71 5.31643C564.56 5.74627 565.565 5.74627 566.415 5.31643L573.605 1.68357C574.456 1.25373 575.461 1.25373 576.311 1.68357L583.501 5.31643C584.352 5.74627 585.356 5.74627 586.207 5.31643L593.397 1.68357C594.248 1.25373 595.252 1.25373 596.103 1.68357L603.293 5.31643C604.144 5.74627 605.148 5.74627 605.999 5.31643L613.189 1.68357C614.039 1.25373 615.044 1.25373 615.895 1.68357L623.085 5.31643C623.935 5.74627 624.94 5.74627 625.79 5.31643L632.98 1.68357C633.831 1.25373 634.836 1.25373 635.686 1.68357L642.876 5.31643C643.727 5.74627 644.731 5.74627 645.582 5.31643L652.772 1.68357C653.623 1.25373 654.627 1.25373 655.478 1.68357L662.668 5.31643C663.519 5.74627 664.523 5.74627 665.374 5.31643L672.564 1.68357C673.414 1.25373 674.419 1.25373 675.27 1.68357L682.46 5.31643C683.31 5.74627 684.315 5.74627 685.165 5.31643L692.355 1.68357C693.206 1.25373 694.211 1.25373 695.061 1.68357L702.251 5.31643C703.102 5.74627 704.106 5.74627 704.957 5.31643L712.147 1.68357C712.998 1.25373 714.002 1.25373 714.853 1.68357L722.043 5.31643C722.894 5.74627 723.898 5.74627 724.749 5.31643L731.939 1.68357C732.789 1.25373 733.794 1.25373 734.645 1.68357L741.835 5.31643C742.685 5.74627 743.69 5.74627 744.54 5.31643L751.73 1.68357C752.581 1.25373 753.586 1.25373 754.436 1.68357L761.626 5.31643C762.477 5.74627 763.481 5.74627 764.332 5.31643L771.522 1.68357C772.373 1.25373 773.377 1.25373 774.228 1.68357L781.418 5.31643C782.269 5.74627 783.273 5.74627 784.124 5.31643L791.314 1.68357C792.164 1.25373 793.169 1.25373 794.02 1.68357L801.21 5.31643C802.06 5.74627 803.065 5.74627 803.915 5.31643L811.105 1.68357C811.956 1.25373 812.961 1.25373 813.811 1.68357L821.001 5.31643C821.852 5.74627 822.856 5.74627 823.707 5.31643L830.897 1.68357C831.748 1.25373 832.752 1.25373 833.603 1.68357L840.793 5.31643C841.644 5.74627 842.648 5.74627 843.499 5.31643L850.689 1.68357C851.54 1.25373 852.544 1.25373 853.395 1.68357L860.585 5.31643C861.435 5.74627 862.44 5.74627 863.29 5.31643L870.48 1.68357C871.331 1.25373 872.336 1.25373 873.186 1.68357L880.376 5.31643C881.227 5.74627 882.231 5.74627 883.082 5.31643L890.272 1.68357C891.123 1.25373 892.127 1.25373 892.978 1.68357L900.168 5.31643C901.019 5.74627 902.023 5.74627 902.874 5.31643L910.064 1.68357C910.915 1.25373 911.919 1.25373 912.77 1.68357L919.96 5.31643C920.81 5.74627 921.815 5.74627 922.665 5.31643L929.855 1.68357C930.706 1.25373 931.711 1.25373 932.561 1.68357L939.751 5.31643C940.602 5.74627 941.606 5.74627 942.457 5.31643L951 1" stroke="#D9D9D9"/>
</svg>
