<svg width="30" height="30" viewBox="0 0 30 30" fill="none" xmlns="http://www.w3.org/2000/svg">
<path d="M1 27V22.4062M29 27V22.4062M1 22.4062H29M1 22.4062V19.1719M29 22.4062V19.1719M1 19.1719V15.6686C1 13.6339 2.64948 11.9844 4.68421 11.9844V11.9844M1 19.1719H29M29 19.1719V15.6686C29 13.6339 27.3505 11.9844 25.3158 11.9844V11.9844M4.68421 11.9844V8C4.68421 5.23858 6.92279 3 9.68421 3H20.3158C23.0772 3 25.3158 5.23858 25.3158 8V11.9844M4.68421 11.9844H9.8421M25.3158 11.9844H20.5263M9.8421 11.9844V8.875C9.8421 7.21815 11.1853 5.875 12.8421 5.875H17.5263C19.1832 5.875 20.5263 7.21815 20.5263 8.875V11.9844M9.8421 11.9844H20.5263" stroke="#739276" stroke-linecap="round" stroke-linejoin="round"/>
</svg>
