<svg width="30" height="30" viewBox="0 0 30 30" fill="none" xmlns="http://www.w3.org/2000/svg">
<path d="M3.68258 13.5262V13.5262C2.89139 13.5262 2.25 14.1676 2.25 14.9587V19.1381M3.68258 13.5262V8.11918C3.68258 7.29076 4.35416 6.61919 5.18258 6.61919H8.47673C8.52579 6.61919 8.57283 6.59964 8.60744 6.56487V6.56487C12.2124 2.94391 18.0741 2.94391 21.6791 6.56487V6.56487C21.7137 6.59964 21.7607 6.61919 21.8098 6.61919H24.8174C25.6458 6.61919 26.3174 7.29076 26.3174 8.11918V13.5262M3.68258 13.5262H7.12079M26.3174 13.5262V13.5262C27.1086 13.5262 27.75 14.1676 27.75 14.9587V19.1381M26.3174 13.5262H23.1657M7.12079 13.5262V11.4593C7.12079 10.2167 8.12815 9.2093 9.37079 9.2093H10.8876C12.1303 9.2093 13.1376 10.2167 13.1376 11.4593V13.5262M7.12079 13.5262H13.1376M13.1376 13.5262H17.1489M17.1489 13.5262V11.4593C17.1489 10.2167 18.1562 9.2093 19.3989 9.2093H20.9157C22.1584 9.2093 23.1657 10.2167 23.1657 11.4593V13.5262M17.1489 13.5262H23.1657M27.75 19.1381V23.8904C27.75 24.3652 27.3652 24.75 26.8904 24.75H26.8367C26.3917 24.75 26.0309 24.3892 26.0309 23.9442V23.9442C26.0309 23.2766 25.4897 22.7355 24.8222 22.7355H5.46434C4.79678 22.7355 4.25562 23.2766 4.25562 23.9442V23.9442C4.25562 24.3892 3.89484 24.75 3.4498 24.75H3.25281C2.69897 24.75 2.25 24.301 2.25 23.7472V19.1381M27.75 19.1381H2.25" stroke="#739276"/>
</svg>
